<?xml version="1.0" encoding="utf-8"?>
<!-- Generator: Adobe Illustrator 19.0.0, SVG Export Plug-In . SVG Version: 6.00 Build 0)  -->
<svg version="1.1" id="Layer_1" xmlns="http://www.w3.org/2000/svg" xmlns:xlink="http://www.w3.org/1999/xlink" x="0px" y="0px"
	 viewBox="4 133 292 17.5" style="enable-background:new 4 133 292 17.5;" xml:space="preserve">
<style type="text/css">
	.st0{fill:#808083;}
</style>
<g id="BG">
</g>
<g id="Boxes">
</g>
<g id="Annotations">
</g>
<g>
	<g>
		<path class="st0" d="M19.7,135.8v10.5h-2.2v-6.7l-2.8,6.7h-1.6l-2.8-6.6v6.7H8.1v-10.5h2.3l3.4,7.9l3.4-7.9
			C17.4,135.8,19.7,135.8,19.7,135.8z"/>
		<path class="st0" d="M29.1,146.5l-0.7-1.9h-4.1l-0.7,1.9h-2.2l3.7-10.5h2.5l3.7,10.5H29.1z M24.8,142.8h3.1l-1.6-4.4L24.8,142.8z"
			/>
		<path class="st0" d="M36.5,135.8c1.6,0,3.1,0.4,4.1,1.5c1,1,1.6,2.2,1.6,3.8s-0.4,2.8-1.6,3.8c-1,1-2.5,1.5-4.1,1.5h-3.7v-10.5
			L36.5,135.8L36.5,135.8z M35.2,144.7h1.5c1,0,1.9-0.3,2.6-1s0.9-1.6,0.9-2.6s-0.3-2-0.9-2.6c-0.6-0.6-1.5-1-2.6-1h-1.5V144.7z"/>
		<path class="st0" d="M50.3,135.8v1.6h-4.1v2.8h3.5v1.6h-3.5v2.9h4.1v1.6h-6.1v-10.7h6.1V135.8z"/>
		<path class="st0" d="M64.3,146.5l-0.7-1.9h-4.1l-0.7,1.9h-2.2l3.7-10.5h2.5l3.7,10.5H64.3z M59.9,142.8H63l-1.6-4.4L59.9,142.8z"
			/>
		<path class="st0" d="M67.5,137.4v-1.6h7.9v1.6h-2.8v8.9h-2.2v-9.1h-2.9V137.4z"/>
	</g>
	<g>
		<path d="M90.3,146.2H87l-2.5-3.9v3.9h-2.6v-10.2h4.1c0.6,0,1,0.1,1.5,0.3c0.4,0.1,0.7,0.4,1,0.7c0.3,0.3,0.4,0.6,0.6,1
			c0.1,0.4,0.1,0.7,0.1,1.2c0,0.7-0.1,1.5-0.6,1.9c-0.4,0.4-0.9,0.9-1.6,1L90.3,146.2z M84.5,140.5h0.4c0.6,0,0.9-0.1,1.2-0.3
			c0.3-0.1,0.4-0.6,0.4-0.9s-0.1-0.7-0.4-0.9c-0.3-0.1-0.7-0.3-1.2-0.3h-0.4V140.5z"/>
		<path d="M90.8,141.1c0-0.7,0.1-1.5,0.4-2.2c0.3-0.7,0.7-1.2,1.2-1.8c0.4-0.6,1-0.9,1.8-1.2c0.7-0.3,1.5-0.4,2.3-0.4
			s1.6,0.1,2.3,0.4c0.7,0.3,1.3,0.6,1.8,1.2c0.4,0.4,0.9,1,1.2,1.8c0.3,0.7,0.4,1.3,0.4,2.2s-0.1,1.5-0.4,2.2s-0.7,1.2-1.2,1.8
			c-0.4,0.4-1.2,0.9-1.8,1.2s-1.5,0.4-2.3,0.4s-1.6-0.1-2.3-0.4c-0.7-0.3-1.3-0.7-1.8-1.2c-0.4-0.4-0.9-1-1.2-1.8
			S90.8,141.8,90.8,141.1z M93.6,141.1c0,0.4,0.1,0.7,0.3,1.2c0.1,0.3,0.3,0.6,0.6,0.9c0.3,0.3,0.6,0.4,0.9,0.6
			c0.3,0.1,0.7,0.1,1.2,0.1s0.7,0,1.2-0.1c0.3-0.1,0.6-0.3,0.9-0.6c0.3-0.3,0.4-0.6,0.6-0.9c0.1-0.3,0.3-0.7,0.3-1.2
			c0-0.4-0.1-0.7-0.3-1.2c-0.1-0.3-0.3-0.6-0.6-0.9c-0.3-0.3-0.6-0.4-0.9-0.6c-0.3-0.1-0.7-0.1-1.2-0.1s-0.7,0-1.2,0.1
			c-0.3,0.1-0.6,0.3-0.9,0.6c-0.3,0.3-0.4,0.6-0.6,0.9C93.7,140.3,93.6,140.6,93.6,141.1z"/>
		<path d="M103.8,135.9h3.9c0.9,0,1.6,0.3,2.2,0.7c0.4,0.4,0.7,1.2,0.7,1.9c0,0.6-0.1,0.9-0.3,1.3c-0.1,0.3-0.4,0.6-0.9,0.9
			c0.4,0,0.7,0.1,1,0.3c0.3,0.1,0.4,0.3,0.6,0.6c0.1,0.1,0.3,0.4,0.3,0.7s0.1,0.6,0.1,0.9c0,0.4-0.1,0.9-0.3,1.3
			c-0.1,0.4-0.4,0.7-0.7,0.9c-0.3,0.3-0.7,0.4-1.2,0.6c-0.4,0.1-0.9,0.1-1.5,0.1h-4.2v-10.2H103.8z M106.6,140h0.4
			c0.9,0,1.3-0.3,1.3-1s-0.4-1-1.3-1h-0.4V140z M106.6,144.1h0.6c0.7,0,1.2-0.1,1.5-0.3c0.3-0.1,0.4-0.4,0.4-0.9
			c0-0.4-0.1-0.6-0.4-0.9c-0.3-0.1-0.7-0.3-1.5-0.3h-0.6V144.1z"/>
		<path d="M112.7,141.1c0-0.7,0.1-1.5,0.4-2.2c0.3-0.7,0.7-1.2,1.2-1.8c0.4-0.6,1-0.9,1.8-1.2c0.7-0.3,1.5-0.4,2.3-0.4
			s1.6,0.1,2.3,0.4c0.7,0.3,1.3,0.6,1.8,1.2c0.4,0.4,0.9,1,1.2,1.8c0.3,0.7,0.4,1.3,0.4,2.2s-0.1,1.5-0.4,2.2
			c-0.3,0.7-0.7,1.2-1.2,1.8c-0.4,0.4-1.2,0.9-1.8,1.2c-0.6,0.3-1.5,0.4-2.3,0.4s-1.6-0.1-2.3-0.4c-0.7-0.3-1.3-0.7-1.8-1.2
			c-0.4-0.4-0.9-1-1.2-1.8C112.9,142.5,112.7,141.8,112.7,141.1z M115.5,141.1c0,0.4,0.1,0.7,0.3,1.2c0.1,0.3,0.3,0.6,0.6,0.9
			c0.3,0.3,0.6,0.4,0.9,0.6c0.3,0.1,0.7,0.1,1.2,0.1s0.7,0,1.2-0.1c0.3-0.1,0.6-0.3,0.9-0.6c0.3-0.3,0.4-0.6,0.6-0.9
			c0.1-0.3,0.3-0.7,0.3-1.2c0-0.4-0.1-0.7-0.3-1.2c-0.1-0.3-0.3-0.6-0.6-0.9c-0.3-0.3-0.6-0.4-0.9-0.6c-0.3-0.1-0.7-0.1-1.2-0.1
			s-0.7,0-1.2,0.1c-0.3,0.1-0.6,0.3-0.9,0.6s-0.4,0.6-0.6,0.9C115.5,140.3,115.5,140.6,115.5,141.1z"/>
		<path d="M129.5,138.3v8h-2.6v-8h-2.2v-2.3h7v2.2h-2.2V138.3z"/>
		<path d="M138.6,138.3h-3.2v1.8h2.9v2.2h-2.9v1.8h3.2v2.2h-5.8v-10.2h5.8V138.3z"/>
		<path d="M143.4,140.8l-3.2-4.8h3.2l1.3,2.6l1.8-2.6h3.2l-3.4,4.8l3.8,5.4h-3.2l-2-3.4l-2.3,3.4h-3.2L143.4,140.8z"/>
		<path d="M151,146.2l1.8-10.2h2.6l2,5.4l2-5.4h2.6l1.8,10.2h-2.6l-0.9-5.8l-2.5,5.8h-1l-2.3-5.8l-0.9,5.8H151z"/>
		<path d="M171.8,144.4H168l-0.6,1.8h-2.9l3.9-10.2h2.9l3.9,10.2h-2.8L171.8,144.4z M171.1,142.4l-1.2-3.4l-1.2,3.4H171.1z"/>
		<path d="M183.3,139.4c-0.6-0.7-1.3-1.2-2.3-1.2c-0.4,0-0.7,0-1.2,0.1c-0.3,0.1-0.6,0.3-0.9,0.6c-0.3,0.3-0.4,0.6-0.6,0.9
			c-0.1,0.3-0.1,0.7-0.1,1.2c0,0.4,0,0.7,0.1,1.2c0.1,0.3,0.3,0.6,0.6,0.9c0.3,0.3,0.6,0.4,0.9,0.6c0.3,0.1,0.7,0.1,1,0.1
			c0.9,0,1.6-0.3,2.3-1v3.2l-0.3,0.1c-0.4,0.1-0.7,0.3-1.2,0.3c-0.3,0-0.7,0.1-1,0.1c-0.7,0-1.3-0.1-2-0.4c-0.6-0.3-1.2-0.6-1.8-1.2
			c-0.4-0.4-0.9-1-1.2-1.8c-0.3-0.7-0.4-1.5-0.4-2.2s0.1-1.5,0.4-2.2c0.3-0.6,0.7-1.2,1.2-1.8c0.4-0.6,1-0.9,1.8-1.2
			c0.6-0.3,1.3-0.4,2-0.4c0.4,0,0.9,0,1.2,0.1c0.4,0.1,0.9,0.1,1.2,0.4v3.4H183.3z"/>
		<path d="M188.2,139.9h3.8v-3.9h2.6v10.2H192v-4.2h-3.8v4.2h-2.6v-10.2h2.6V139.9z"/>
		<path d="M199.4,135.9v10.2h-2.6v-10.2H199.4z"/>
		<path d="M201.5,146.2v-10.2h2.6l5,6.3v-6.3h2.6v10.2h-2.6l-5-6.3v6.3H201.5z"/>
		<path d="M220.2,144.4h-3.8l-0.6,1.8H213l3.9-10.2h2.9l3.9,10.2h-2.8L220.2,144.4z M219.5,142.4l-1.2-3.4l-1.2,3.4H219.5z"/>
		<path d="M225,144.9c0-0.1,0-0.4,0.1-0.6c0.1-0.1,0.1-0.3,0.3-0.4c0.1-0.1,0.3-0.3,0.4-0.3c0.1,0,0.4-0.1,0.6-0.1s0.4,0,0.6,0.1
			c0.1,0.1,0.3,0.1,0.4,0.3c0.1,0.1,0.3,0.3,0.3,0.4c0,0.1,0.1,0.4,0.1,0.6s0,0.4-0.1,0.6s-0.1,0.3-0.3,0.4
			c-0.1,0.1-0.3,0.3-0.4,0.3c-0.1,0-0.4,0.1-0.6,0.1s-0.4,0-0.6-0.1c-0.1-0.1-0.3-0.1-0.4-0.3c-0.1-0.1-0.3-0.3-0.3-0.4
			C225.2,145.3,225,145.1,225,144.9z"/>
		<path d="M237.3,139.4c-0.6-0.7-1.3-1.2-2.3-1.2c-0.4,0-0.7,0-1.2,0.1c-0.3,0.1-0.6,0.3-0.9,0.6c-0.3,0.3-0.4,0.6-0.6,0.9
			c-0.1,0.3-0.1,0.7-0.1,1.2c0,0.4,0,0.7,0.1,1.2c0.1,0.3,0.3,0.6,0.6,0.9c0.3,0.3,0.6,0.4,0.9,0.6c0.3,0.1,0.7,0.1,1,0.1
			c0.9,0,1.6-0.3,2.3-1v3.2l-0.3,0.1c-0.4,0.1-0.7,0.3-1.2,0.3c-0.3,0-0.7,0.1-1,0.1c-0.7,0-1.3-0.1-2-0.4c-0.6-0.3-1.2-0.6-1.8-1.2
			c-0.4-0.4-0.9-1-1.2-1.8c-0.3-0.7-0.4-1.5-0.4-2.2s0.1-1.5,0.4-2.2c0.3-0.6,0.7-1.2,1.2-1.8c0.4-0.6,1-0.9,1.8-1.2
			c0.6-0.3,1.3-0.4,2-0.4c0.4,0,0.9,0,1.2,0.1c0.4,0.1,0.9,0.1,1.2,0.4v3.4H237.3z"/>
		<path d="M238.6,141.1c0-0.7,0.1-1.5,0.4-2.2c0.3-0.6,0.7-1.2,1.2-1.8c0.4-0.6,1-0.9,1.8-1.2c0.7-0.3,1.5-0.4,2.3-0.4
			s1.6,0.1,2.3,0.4c0.7,0.3,1.3,0.6,1.8,1.2c0.4,0.6,0.9,1,1.2,1.8c0.3,0.7,0.4,1.3,0.4,2.2s-0.1,1.5-0.4,2.2
			c-0.3,0.7-0.7,1.2-1.2,1.8c-0.4,0.4-1.2,0.9-1.8,1.2c-0.6,0.3-1.5,0.4-2.3,0.4s-1.6-0.1-2.3-0.4s-1.3-0.7-1.8-1.2
			c-0.4-0.4-0.9-1-1.2-1.8S238.6,141.8,238.6,141.1z M241.4,141.1c0,0.4,0.1,0.7,0.3,1.2c0.1,0.3,0.3,0.6,0.6,0.9
			c0.3,0.3,0.6,0.4,0.9,0.6c0.3,0.1,0.7,0.1,1.2,0.1c0.4,0,0.7,0,1.2-0.1c0.3-0.1,0.6-0.3,0.9-0.6c0.3-0.3,0.4-0.6,0.6-0.9
			c0.1-0.3,0.3-0.7,0.3-1.2c0-0.4-0.1-0.7-0.3-1.2c-0.1-0.3-0.3-0.6-0.6-0.9c-0.3-0.3-0.6-0.4-0.9-0.6c-0.3-0.1-0.7-0.1-1.2-0.1
			c-0.4,0-0.7,0-1.2,0.1c-0.3,0.1-0.6,0.3-0.9,0.6c-0.3,0.3-0.4,0.6-0.6,0.9C241.5,140.3,241.4,140.6,241.4,141.1z"/>
		<path d="M251.2,146.2l1.8-10.2h2.6l2,5.4l2-5.4h2.6l1.8,10.2h-2.6l-0.9-5.8l-2.5,5.8h-1l-2.3-5.8l-0.9,5.8H251.2z"/>
		<path d="M270.2,134.9h1.9l-5.6,13.6h-1.9L270.2,134.9z"/>
		<path d="M278.5,138.6c-0.3-0.3-0.6-0.4-0.9-0.6c-0.3-0.1-0.6-0.1-0.9-0.1s-0.6,0.1-0.9,0.3c-0.1,0.1-0.3,0.4-0.3,0.6
			c0,0.1,0,0.3,0.1,0.4c0.1,0.1,0.3,0.3,0.4,0.3c0.1,0.1,0.4,0.1,0.6,0.3c0.3,0,0.4,0.1,0.7,0.1c0.9,0.3,1.5,0.7,1.9,1.2
			c0.4,0.4,0.6,1.2,0.6,1.9c0,0.6-0.1,1-0.3,1.5c-0.1,0.4-0.4,0.7-0.7,1s-0.7,0.6-1.3,0.7s-1,0.3-1.6,0.3c-1.3,0-2.5-0.4-3.7-1.2
			l1.2-2.2c0.4,0.3,0.7,0.6,1.2,0.7c0.4,0.1,0.7,0.3,1.2,0.3s0.7-0.1,1-0.3c0.1-0.1,0.3-0.4,0.3-0.7c0-0.1,0-0.3-0.1-0.4
			c0-0.1-0.1-0.1-0.3-0.3c-0.1-0.1-0.3-0.1-0.4-0.3c-0.1-0.1-0.4-0.1-0.7-0.3c-0.3-0.1-0.7-0.3-1-0.3s-0.6-0.3-0.9-0.6
			c-0.3-0.1-0.4-0.4-0.6-0.9c-0.1-0.3-0.3-0.7-0.3-1.3c0-0.4,0.1-1,0.3-1.3c0.1-0.3,0.4-0.7,0.7-1c0.3-0.3,0.7-0.6,1.2-0.7
			c0.4-0.1,0.9-0.3,1.5-0.3c0.4,0,1,0,1.6,0.1c0.6,0.1,1,0.3,1.6,0.6L278.5,138.6z"/>
		<path d="M286.6,140.5h5.3c0,0.6,0,1,0,1.5c0,0.4-0.1,0.9-0.3,1.2c-0.1,0.6-0.4,1-0.7,1.5c-0.3,0.4-0.7,0.7-1.2,1
			c-0.4,0.3-0.9,0.4-1.5,0.6c-0.6,0.1-1,0.1-1.6,0.1c-0.7,0-1.5-0.1-2.2-0.4c-0.6-0.3-1.2-0.6-1.8-1.2c-0.4-0.4-0.9-1-1.2-1.8
			c-0.3-0.7-0.4-1.5-0.4-2.2c0-0.7,0.1-1.5,0.4-2.2s0.6-1.2,1.2-1.8c0.4-0.4,1-0.9,1.8-1.2c0.7-0.3,1.5-0.4,2.2-0.4
			c1,0,2,0.3,2.8,0.7c0.9,0.4,1.5,1.2,1.9,2.2l-2.5,1c-0.3-0.6-0.6-1-0.9-1.2c-0.4-0.3-0.7-0.4-1.3-0.4c-0.4,0-0.7,0.1-1,0.3
			s-0.6,0.3-0.9,0.6c-0.3,0.3-0.4,0.6-0.6,1c-0.1,0.4-0.1,0.9-0.1,1.3c0,0.4,0,0.9,0.1,1.2c0.1,0.4,0.3,0.7,0.4,1
			c0.1,0.3,0.4,0.4,0.9,0.6c0.3,0.1,0.7,0.3,1.2,0.3c0.3,0,0.6,0,0.7-0.1c0.1-0.1,0.4-0.1,0.6-0.3c0.1-0.1,0.3-0.3,0.4-0.4
			s0.1-0.4,0.3-0.7h-2.2v-1.8H286.6z"/>
	</g>
</g>
</svg>
