<?xml version="1.0" encoding="utf-8"?>
<!-- Generator: Adobe Illustrator 19.0.0, SVG Export Plug-In . SVG Version: 6.00 Build 0)  -->
<svg version="1.1" id="Layer_1" xmlns="http://www.w3.org/2000/svg" xmlns:xlink="http://www.w3.org/1999/xlink" x="0px" y="0px"
	 viewBox="36 133 228 30" style="enable-background:new 36 133 228 30;" xml:space="preserve">
<style type="text/css">
	.st0{fill:#808083;}
</style>
<g id="BG">
</g>
<g id="Boxes">
</g>
<g id="Annotations">
</g>
<g>
	<path class="st0" d="M52.5,136.9v10.8h-2.2v-6.9l-2.9,6.8h-1.6l-2.9-6.7v6.8h-2.2v-10.8h2.4l3.5,8l3.5-8
		C50.1,136.9,52.5,136.9,52.5,136.9z"/>
	<path class="st0" d="M62.1,147.7l-0.7-2h-4.2l-0.7,2h-2.3l3.8-10.8h2.6l3.8,10.8H62.1z M57.7,144h3.1l-1.6-4.5L57.7,144z"/>
	<path class="st0" d="M69.7,136.9c1.7,0,3.1,0.5,4.2,1.5c1.1,1,1.6,2.3,1.6,3.9c0,1.6-0.5,2.9-1.6,3.9s-2.5,1.5-4.2,1.5H66v-10.8
		H69.7z M68.3,146h1.5c1.1,0,2-0.3,2.7-1c0.7-0.7,0.9-1.6,0.9-2.7c0-1.1-0.3-2.1-0.9-2.7c-0.6-0.6-1.5-1-2.7-1h-1.5V146z"/>
	<path class="st0" d="M83.7,136.8v1.7h-4.1v2.8h3.6v1.7h-3.6v3h4.1v1.7h-6.2v-10.9H83.7z"/>
	<path class="st0" d="M98,147.7l-0.7-2h-4.2l-0.7,2h-2.3l3.8-10.8h2.6l3.8,10.8H98z M93.6,144h3.1l-1.6-4.5L93.6,144z"/>
	<path class="st0" d="M101.3,138.5v-1.6h8v1.7h-2.9v9.1h-2.2v-9.2H101.3z"/>
	<path d="M114,147.4l1.8-10.4h2.7l2.1,5.6l2.1-5.6h2.7l1.8,10.4h-2.7l-0.9-6l-2.5,6h-1.1l-2.3-6l-0.9,6H114z"/>
	<path d="M131.5,136.9v10.4h-2.7v-10.4H131.5z"/>
	<path d="M133.6,147.4v-10.4h2.7l5,6.4v-6.4h2.7v10.4h-2.7l-5-6.4v6.4H133.6z"/>
	<path d="M146.2,136.9h4c0.7,0,1.4,0.1,2,0.4c0.6,0.3,1.2,0.7,1.6,1.1c0.5,0.5,0.8,1,1.1,1.7c0.3,0.6,0.4,1.3,0.4,2
		c0,0.7-0.1,1.3-0.4,2c-0.3,0.6-0.6,1.2-1.1,1.7c-0.5,0.5-1,0.9-1.6,1.1c-0.6,0.3-1.3,0.4-2,0.4h-4V136.9z M149,145.1h0.6
		c0.5,0,0.9-0.1,1.3-0.2s0.7-0.4,0.9-0.6c0.3-0.3,0.4-0.6,0.6-0.9s0.2-0.7,0.2-1.2c0-0.4-0.1-0.8-0.2-1.2c-0.1-0.4-0.3-0.7-0.6-0.9
		s-0.6-0.5-0.9-0.6s-0.8-0.2-1.2-0.2H149V145.1z"/>
	<path d="M167.8,139.2h-3.2v1.7h3v2.3h-3v1.8h3.2v2.3h-5.9v-10.4h5.9V139.2z"/>
	<path d="M172.7,141.8l-3.2-4.9h3.3l1.4,2.7l1.7-2.7h3.3l-3.4,4.9l3.9,5.6h-3.3l-2.1-3.4l-2.4,3.4h-3.3L172.7,141.8z"/>
	<path d="M185.1,147.4l1.8-10.4h2.7l2.1,5.6l2.1-5.6h2.7l1.8,10.4h-2.7l-0.9-6l-2.5,6H191l-2.3-6l-0.9,6H185.1z"/>
	<path d="M206.2,145.6h-3.9l-0.6,1.8h-2.9l4-10.4h3l4,10.4h-2.9L206.2,145.6z M205.5,143.5l-1.2-3.5l-1.2,3.5H205.5z"/>
	<path d="M218.1,140.4c-0.6-0.8-1.4-1.1-2.3-1.1c-0.4,0-0.8,0.1-1.1,0.2s-0.6,0.3-0.9,0.6c-0.2,0.3-0.4,0.6-0.6,0.9
		c-0.1,0.4-0.2,0.7-0.2,1.1c0,0.4,0.1,0.8,0.2,1.1c0.1,0.4,0.3,0.7,0.6,0.9c0.3,0.3,0.6,0.5,0.9,0.6c0.3,0.1,0.7,0.2,1.1,0.2
		c0.9,0,1.6-0.4,2.3-1.1v3.2l-0.3,0.1c-0.4,0.1-0.8,0.3-1.2,0.3s-0.7,0.1-1.1,0.1c-0.7,0-1.4-0.1-2.1-0.4c-0.7-0.3-1.2-0.7-1.7-1.1
		s-0.9-1.1-1.2-1.8c-0.3-0.7-0.5-1.4-0.5-2.2c0-0.8,0.2-1.5,0.5-2.2c0.3-0.7,0.7-1.2,1.2-1.7c0.5-0.5,1.1-0.9,1.8-1.1
		s1.4-0.4,2.1-0.4c0.4,0,0.8,0,1.2,0.1c0.4,0.1,0.8,0.2,1.3,0.4V140.4z"/>
	<path d="M222.9,141h3.9v-4h2.7v10.4h-2.7v-4.3h-3.9v4.3h-2.7v-10.4h2.7V141z"/>
	<path d="M234.5,136.9v10.4h-2.7v-10.4H234.5z"/>
	<path d="M236.6,147.4v-10.4h2.7l5,6.4v-6.4h2.7v10.4h-2.7l-5-6.4v6.4H236.6z"/>
	<path d="M255.7,145.6h-3.9l-0.6,1.8h-2.9l4-10.4h3l4,10.4h-2.9L255.7,145.6z M254.9,143.5l-1.2-3.5l-1.2,3.5H254.9z"/>
</g>
<g>
	<path d="M120.5,159.2h-2.3l-1.7-2.7v2.7h-1.8v-7h2.8c0.4,0,0.7,0.1,1,0.2c0.3,0.1,0.5,0.3,0.7,0.5s0.3,0.4,0.4,0.7
		c0.1,0.3,0.1,0.5,0.1,0.8c0,0.5-0.1,1-0.4,1.3c-0.3,0.3-0.6,0.6-1.1,0.7L120.5,159.2z M116.5,155.3h0.3c0.4,0,0.6-0.1,0.8-0.2
		c0.2-0.1,0.3-0.4,0.3-0.6s-0.1-0.5-0.3-0.6c-0.2-0.1-0.5-0.2-0.8-0.2h-0.3V155.3z"/>
	<path d="M120.8,155.7c0-0.5,0.1-1,0.3-1.5s0.5-0.8,0.8-1.2s0.7-0.6,1.2-0.8c0.5-0.2,1-0.3,1.6-0.3c0.6,0,1.1,0.1,1.6,0.3
		s0.9,0.4,1.2,0.8c0.3,0.3,0.6,0.7,0.8,1.2s0.3,0.9,0.3,1.5s-0.1,1-0.3,1.5s-0.5,0.8-0.8,1.2c-0.3,0.3-0.8,0.6-1.2,0.8
		s-1,0.3-1.6,0.3c-0.6,0-1.1-0.1-1.6-0.3c-0.5-0.2-0.9-0.5-1.2-0.8c-0.3-0.3-0.6-0.7-0.8-1.2S120.8,156.2,120.8,155.7z M122.7,155.7
		c0,0.3,0.1,0.5,0.2,0.8c0.1,0.2,0.2,0.4,0.4,0.6c0.2,0.2,0.4,0.3,0.6,0.4c0.2,0.1,0.5,0.1,0.8,0.1s0.5,0,0.8-0.1
		c0.2-0.1,0.4-0.2,0.6-0.4c0.2-0.2,0.3-0.4,0.4-0.6c0.1-0.2,0.2-0.5,0.2-0.8s-0.1-0.5-0.2-0.8c-0.1-0.2-0.2-0.4-0.4-0.6
		c-0.2-0.2-0.4-0.3-0.6-0.4c-0.2-0.1-0.5-0.1-0.8-0.1s-0.5,0-0.8,0.1c-0.2,0.1-0.4,0.2-0.6,0.4c-0.2,0.2-0.3,0.4-0.4,0.6
		C122.8,155.1,122.7,155.4,122.7,155.7z"/>
	<path d="M129.7,152.2h2.7c0.6,0,1.1,0.2,1.5,0.5c0.3,0.3,0.5,0.8,0.5,1.3c0,0.4-0.1,0.6-0.2,0.9c-0.1,0.2-0.3,0.4-0.6,0.6
		c0.3,0,0.5,0.1,0.7,0.2c0.2,0.1,0.3,0.2,0.4,0.4c0.1,0.1,0.2,0.3,0.2,0.5c0,0.2,0.1,0.4,0.1,0.6c0,0.3-0.1,0.6-0.2,0.9
		c-0.1,0.3-0.3,0.5-0.5,0.6c-0.2,0.2-0.5,0.3-0.8,0.4c-0.3,0.1-0.6,0.1-1,0.1h-2.9V152.2z M131.5,154.9h0.3c0.6,0,0.9-0.2,0.9-0.7
		s-0.3-0.7-0.9-0.7h-0.3V154.9z M131.5,157.7h0.4c0.5,0,0.8-0.1,1-0.2c0.2-0.1,0.3-0.3,0.3-0.6c0-0.3-0.1-0.4-0.3-0.6
		c-0.2-0.1-0.5-0.2-1-0.2h-0.4V157.7z"/>
	<path d="M135.8,155.7c0-0.5,0.1-1,0.3-1.5s0.5-0.8,0.8-1.2s0.7-0.6,1.2-0.8c0.5-0.2,1-0.3,1.6-0.3c0.6,0,1.1,0.1,1.6,0.3
		s0.9,0.4,1.2,0.8c0.3,0.3,0.6,0.7,0.8,1.2s0.3,0.9,0.3,1.5s-0.1,1-0.3,1.5s-0.5,0.8-0.8,1.2c-0.3,0.3-0.8,0.6-1.2,0.8
		s-1,0.3-1.6,0.3c-0.6,0-1.1-0.1-1.6-0.3c-0.5-0.2-0.9-0.5-1.2-0.8c-0.3-0.3-0.6-0.7-0.8-1.2S135.8,156.2,135.8,155.7z M137.7,155.7
		c0,0.3,0.1,0.5,0.2,0.8c0.1,0.2,0.2,0.4,0.4,0.6c0.2,0.2,0.4,0.3,0.6,0.4c0.2,0.1,0.5,0.1,0.8,0.1s0.5,0,0.8-0.1
		c0.2-0.1,0.4-0.2,0.6-0.4c0.2-0.2,0.3-0.4,0.4-0.6c0.1-0.2,0.2-0.5,0.2-0.8s-0.1-0.5-0.2-0.8c-0.1-0.2-0.2-0.4-0.4-0.6
		c-0.2-0.2-0.4-0.3-0.6-0.4c-0.2-0.1-0.5-0.1-0.8-0.1s-0.5,0-0.8,0.1c-0.2,0.1-0.4,0.2-0.6,0.4c-0.2,0.2-0.3,0.4-0.4,0.6
		C137.7,155.1,137.7,155.4,137.7,155.7z"/>
	<path d="M147.2,153.7v5.5h-1.8v-5.5h-1.5v-1.5h4.8v1.5H147.2z"/>
	<path d="M153.5,153.7h-2.2v1.2h2v1.5h-2v1.2h2.2v1.5h-4v-7h4V153.7z"/>
	<path d="M156.8,155.4l-2.2-3.3h2.2l0.9,1.8l1.2-1.8h2.2l-2.3,3.3l2.6,3.7h-2.2l-1.4-2.3l-1.6,2.3h-2.2L156.8,155.4z"/>
	<path d="M161.9,159.2l1.2-7h1.8l1.4,3.7l1.4-3.7h1.8l1.2,7h-1.8l-0.6-4l-1.7,4h-0.7l-1.6-4l-0.6,4H161.9z"/>
	<path d="M176.1,157.9h-2.6l-0.4,1.2h-1.9l2.7-7h2l2.7,7h-1.9L176.1,157.9z M175.7,156.6l-0.8-2.3l-0.8,2.3H175.7z"/>
	<path d="M184.1,154.5c-0.4-0.5-0.9-0.8-1.6-0.8c-0.3,0-0.5,0-0.8,0.1c-0.2,0.1-0.4,0.2-0.6,0.4s-0.3,0.4-0.4,0.6
		c-0.1,0.2-0.1,0.5-0.1,0.8c0,0.3,0,0.5,0.1,0.8c0.1,0.2,0.2,0.4,0.4,0.6s0.4,0.3,0.6,0.4s0.5,0.1,0.7,0.1c0.6,0,1.1-0.2,1.6-0.7
		v2.2l-0.2,0.1c-0.3,0.1-0.5,0.2-0.8,0.2c-0.2,0-0.5,0.1-0.7,0.1c-0.5,0-0.9-0.1-1.4-0.3c-0.4-0.2-0.8-0.4-1.2-0.8
		c-0.3-0.3-0.6-0.7-0.8-1.2c-0.2-0.5-0.3-1-0.3-1.5s0.1-1,0.3-1.5c0.2-0.4,0.5-0.8,0.8-1.2s0.7-0.6,1.2-0.8c0.4-0.2,0.9-0.3,1.4-0.3
		c0.3,0,0.6,0,0.8,0.1c0.3,0.1,0.6,0.1,0.8,0.3V154.5z"/>
	<path d="M187.3,154.9h2.6v-2.7h1.8v7H190v-2.9h-2.6v2.9h-1.8v-7h1.8V154.9z"/>
	<path d="M195.1,152.2v7h-1.8v-7H195.1z"/>
	<path d="M196.5,159.2v-7h1.8l3.4,4.3v-4.3h1.8v7h-1.8l-3.4-4.3v4.3H196.5z"/>
	<path d="M209.3,157.9h-2.6l-0.4,1.2h-1.9l2.7-7h2l2.7,7h-1.9L209.3,157.9z M208.8,156.6l-0.8-2.3l-0.8,2.3H208.8z"/>
	<path d="M212.5,158.3c0-0.1,0-0.3,0.1-0.4s0.1-0.2,0.2-0.3c0.1-0.1,0.2-0.2,0.3-0.2s0.3-0.1,0.4-0.1s0.3,0,0.4,0.1s0.2,0.1,0.3,0.2
		c0.1,0.1,0.2,0.2,0.2,0.3s0.1,0.3,0.1,0.4s0,0.3-0.1,0.4s-0.1,0.2-0.2,0.3c-0.1,0.1-0.2,0.2-0.3,0.2s-0.3,0.1-0.4,0.1
		s-0.3,0-0.4-0.1s-0.2-0.1-0.3-0.2c-0.1-0.1-0.2-0.2-0.2-0.3S212.5,158.4,212.5,158.3z"/>
	<path d="M221,154.5c-0.4-0.5-0.9-0.8-1.6-0.8c-0.3,0-0.5,0-0.8,0.1c-0.2,0.1-0.4,0.2-0.6,0.4s-0.3,0.4-0.4,0.6
		c-0.1,0.2-0.1,0.5-0.1,0.8c0,0.3,0,0.5,0.1,0.8c0.1,0.2,0.2,0.4,0.4,0.6s0.4,0.3,0.6,0.4s0.5,0.1,0.7,0.1c0.6,0,1.1-0.2,1.6-0.7
		v2.2l-0.2,0.1c-0.3,0.1-0.5,0.2-0.8,0.2c-0.2,0-0.5,0.1-0.7,0.1c-0.5,0-0.9-0.1-1.4-0.3c-0.4-0.2-0.8-0.4-1.2-0.8
		c-0.3-0.3-0.6-0.7-0.8-1.2c-0.2-0.5-0.3-1-0.3-1.5s0.1-1,0.3-1.5c0.2-0.4,0.5-0.8,0.8-1.2s0.7-0.6,1.2-0.8c0.4-0.2,0.9-0.3,1.4-0.3
		c0.3,0,0.6,0,0.8,0.1c0.3,0.1,0.6,0.1,0.8,0.3V154.5z"/>
	<path d="M221.9,155.7c0-0.5,0.1-1,0.3-1.5c0.2-0.4,0.5-0.8,0.8-1.2s0.7-0.6,1.2-0.8c0.5-0.2,1-0.3,1.6-0.3c0.6,0,1.1,0.1,1.6,0.3
		s0.9,0.4,1.2,0.8s0.6,0.7,0.8,1.2s0.3,0.9,0.3,1.5s-0.1,1-0.3,1.5s-0.5,0.8-0.8,1.2c-0.3,0.3-0.8,0.6-1.2,0.8s-1,0.3-1.6,0.3
		c-0.6,0-1.1-0.1-1.6-0.3c-0.5-0.2-0.9-0.5-1.2-0.8c-0.3-0.3-0.6-0.7-0.8-1.2C222,156.7,221.9,156.2,221.9,155.7z M223.8,155.7
		c0,0.3,0.1,0.5,0.2,0.8c0.1,0.2,0.2,0.4,0.4,0.6c0.2,0.2,0.4,0.3,0.6,0.4c0.2,0.1,0.5,0.1,0.8,0.1s0.5,0,0.8-0.1
		c0.2-0.1,0.4-0.2,0.6-0.4c0.2-0.2,0.3-0.4,0.4-0.6c0.1-0.2,0.2-0.5,0.2-0.8s-0.1-0.5-0.2-0.8c-0.1-0.2-0.2-0.4-0.4-0.6
		c-0.2-0.2-0.4-0.3-0.6-0.4c-0.2-0.1-0.5-0.1-0.8-0.1s-0.5,0-0.8,0.1c-0.2,0.1-0.4,0.2-0.6,0.4c-0.2,0.2-0.3,0.4-0.4,0.6
		C223.8,155.1,223.8,155.4,223.8,155.7z"/>
	<path d="M230.5,159.2l1.2-7h1.8l1.4,3.7l1.4-3.7h1.8l1.2,7h-1.8l-0.6-4l-1.7,4h-0.7l-1.6-4l-0.6,4H230.5z"/>
	<path d="M243.4,151.5h1.3l-3.8,9.3h-1.3L243.4,151.5z"/>
	<path d="M249.2,154c-0.2-0.2-0.4-0.3-0.6-0.4c-0.2-0.1-0.4-0.1-0.6-0.1c-0.2,0-0.4,0.1-0.6,0.2c-0.1,0.1-0.2,0.3-0.2,0.4
		c0,0.1,0,0.2,0.1,0.3c0.1,0.1,0.2,0.2,0.3,0.2c0.1,0.1,0.3,0.1,0.4,0.2c0.2,0,0.3,0.1,0.5,0.1c0.6,0.2,1,0.5,1.3,0.8
		c0.3,0.3,0.4,0.8,0.4,1.3c0,0.4-0.1,0.7-0.2,1c-0.1,0.3-0.3,0.5-0.5,0.7s-0.5,0.4-0.9,0.5s-0.7,0.2-1.1,0.2c-0.9,0-1.7-0.3-2.5-0.8
		l0.8-1.5c0.3,0.2,0.5,0.4,0.8,0.5c0.3,0.1,0.5,0.2,0.8,0.2c0.3,0,0.5-0.1,0.7-0.2c0.1-0.1,0.2-0.3,0.2-0.5c0-0.1,0-0.2-0.1-0.3
		c0-0.1-0.1-0.1-0.2-0.2c-0.1-0.1-0.2-0.1-0.3-0.2c-0.1-0.1-0.3-0.1-0.5-0.2c-0.2-0.1-0.5-0.2-0.7-0.2s-0.4-0.2-0.6-0.4
		c-0.2-0.1-0.3-0.3-0.4-0.6c-0.1-0.2-0.2-0.5-0.2-0.9c0-0.3,0.1-0.7,0.2-0.9s0.3-0.5,0.5-0.7s0.5-0.4,0.8-0.5s0.6-0.2,1-0.2
		c0.3,0,0.7,0,1.1,0.1s0.7,0.2,1.1,0.4L249.2,154z"/>
	<path d="M254.7,155.2h3.6c0,0.4,0,0.7,0,1c0,0.3-0.1,0.6-0.2,0.8c-0.1,0.4-0.3,0.7-0.5,1s-0.5,0.5-0.8,0.7s-0.6,0.3-1,0.4
		c-0.4,0.1-0.7,0.1-1.1,0.1c-0.5,0-1-0.1-1.5-0.3c-0.4-0.2-0.8-0.4-1.2-0.8c-0.3-0.3-0.6-0.7-0.8-1.2c-0.2-0.5-0.3-1-0.3-1.5
		c0-0.5,0.1-1,0.3-1.5c0.2-0.5,0.4-0.8,0.8-1.2c0.3-0.3,0.7-0.6,1.2-0.8c0.5-0.2,1-0.3,1.5-0.3c0.7,0,1.4,0.2,1.9,0.5
		c0.6,0.3,1,0.8,1.3,1.5l-1.7,0.7c-0.2-0.4-0.4-0.7-0.6-0.8c-0.3-0.2-0.5-0.3-0.9-0.3c-0.3,0-0.5,0.1-0.7,0.2s-0.4,0.2-0.6,0.4
		c-0.2,0.2-0.3,0.4-0.4,0.7s-0.1,0.6-0.1,0.9c0,0.3,0,0.6,0.1,0.8c0.1,0.3,0.2,0.5,0.3,0.7s0.3,0.3,0.6,0.4c0.2,0.1,0.5,0.2,0.8,0.2
		c0.2,0,0.4,0,0.5-0.1s0.3-0.1,0.4-0.2c0.1-0.1,0.2-0.2,0.3-0.3c0.1-0.1,0.1-0.3,0.2-0.5h-1.5V155.2z"/>
</g>
</svg>
