<?xml version="1.0" encoding="utf-8"?>
<!-- Generator: Adobe Illustrator 19.0.0, SVG Export Plug-In . SVG Version: 6.00 Build 0)  -->
<svg version="1.1" id="Layer_1" xmlns="http://www.w3.org/2000/svg" xmlns:xlink="http://www.w3.org/1999/xlink" x="0px" y="0px"
	 viewBox="498 -18.5 1280 320" style="enable-background:new 498 -18.5 1280 320;" xml:space="preserve">
<style type="text/css">
	.st0{fill:#DBDBDB;}
	.st1{fill:#A6A8AB;}
	.st2{fill:#C4C4C4;}
	.st3{fill:none;stroke:#DBDBDB;stroke-width:2;stroke-miterlimit:10;}
	.st4{fill:#FFFFFF;}
	.st5{fill:#F68757;}
	.st6{fill:#E76BE4;}
	.st7{fill:#46CD46;}
	.st8{fill:url(#SVGID_1_);}
	.st9{fill:url(#SVGID_2_);}
	.st10{fill:url(#SVGID_3_);}
	.st11{fill:url(#SVGID_4_);}
	.st12{fill:#A7A9AC;}
	.st13{fill:none;stroke:#A0A0A0;stroke-width:2;stroke-miterlimit:10;}
</style>
<polygon class="st0" points="1409,292.1 1408.8,194.3 1370,164.2 1343.4,164.2 1343.4,194.3 1327.9,194.3 1308.4,164.2 
	1282.7,164.2 1282.9,262 1321.7,292.1 1348.3,292.1 1348.3,264.9 1383.2,292.1 "/>
<path class="st0" d="M1520.2,291.3l-33.8-97.7l-38.8-30.1h-30.4l-33.5,97.7l38.8,30.1h28.4l5.1-15.7h15.6l20.3,15.7L1520.2,291.3
	L1520.2,291.3z"/>
<g>
	<path class="st1" d="M1447.9,163.2l33.8,97.7h-28.5l-5.2-15.7h-30.6l-5.1,15.7h-28.4l33.5-97.7
		C1417.4,163.2,1447.9,163.2,1447.9,163.2z M1424.4,224h16.6l-8.4-25.1L1424.4,224"/>
</g>
<g>
	<polygon class="st1" points="1456.8,154.5 1490.6,252.3 1481.8,260.9 1447.9,163.2 	"/>
</g>
<g>
	<polygon class="st1" points="1449.8,215.3 1440.9,224 1432.7,198.9 1441.4,190.2 	"/>
</g>
<g>
	<polygon class="st1" points="1441.4,190.2 1433.2,215.3 1424.4,224 1432.7,198.9 	"/>
</g>
<g>
	<polygon class="st2" points="1462.1,252.3 1453.2,260.9 1448.1,245.2 1456.8,236.5 	"/>
</g>
<g>
	<polygon class="st1" points="1490.6,252.3 1481.8,260.9 1453.2,260.9 1462.1,252.3 	"/>
</g>
<g>
	<polygon class="st1" points="1456.8,236.5 1448.1,245.2 1417.4,245.2 1426.2,236.5 	"/>
</g>
<g>
	<polygon class="st2" points="1392.8,252.3 1383.9,260.9 1417.4,163.2 1426.2,154.5 	"/>
</g>
<g>
	<polygon class="st1" points="1421.1,252.3 1412.2,260.9 1383.9,260.9 1392.8,252.3 	"/>
</g>
<g id="Layer_2">
</g>
<path class="st0" d="M1249.8,292.1l-0.2-97.5l-38.8-30.1h-26.6l0.1,24.9l-32.2-24.9h-26.6l0.2,97.5l38.8,30.1h26.6l-0.1-24.9
	l32.1,24.9H1249.8z"/>
<g>
	<path class="st0" d="M1727.4,94.6h-127.1v112l33.3,25.9c1.3,0.7,2.8,1.1,4.3,1.1h116.2c4.8,0,8.6-3.9,8.6-8.6v-98.4
		c0-3.1-1.7-5.9-4.3-7.5L1727.4,94.6z"/>
</g>
<polygon class="st0" points="820.4,85.5 820.4,64.3 781.6,34.2 704.1,34.2 704.2,52.3 704.1,52.3 704.1,55.4 729.6,75.2 
	729.7,131.7 768.5,161.7 795.1,161.7 795,85.5 "/>
<path class="st0" d="M897.2,140.5l-22.9-17.8h18.9v-21.3l-20.9-16.2h24.8V63.9l-38.8-30.1h-60.4l0.2,97.7l38.8,30.1h60.4
	L897.2,140.5z"/>
<path class="st0" d="M1007.7,161.7L973.9,64l-38.8-30.1h-30.4l-33.5,97.7l38.8,30.1h28.4l5.1-15.7H959l20.3,15.7L1007.7,161.7
	L1007.7,161.7z"/>
<path class="st0" d="M1325,161.7L1291.2,64l-38.8-30.1H1222l-33.5,97.7l38.8,30.1h28.4l5.1-15.7h15.6l20.3,15.7L1325,161.7
	L1325,161.7z"/>
<path class="st0" d="M1214.2,161.7l-0.2-97.4l-38.8-30.1h-26.6l0.1,24.9l-32.1-24.9H1090l0.2,97.5l38.8,30.1h26.6l-0.1-24.9
	l32.1,24.9h26.6V161.7z"/>
<path class="st0" d="M1365.5,41.6c-6-4.9-14-7.4-23.9-7.4h-42.5l0.2,97.5l38.8,30.1h44.7c10.2,0,18.2-2.4,24-7
	c5.9-4.8,8.9-11.3,8.9-19.3c0-6.3-2.1-11.9-6.1-16.6c-1.6-1.8-3.4-3.4-5.4-4.7c-1.1-1-2.3-1.9-3.5-2.7l-0.1-0.1
	c8.5-4.4,12.9-11.3,12.8-20.6c0-7.7-3.1-14.1-9.2-19.1L1365.5,41.6z"/>
<polygon class="st0" points="1434.2,161.7 1489.2,161.7 1489.1,140.5 1460.8,118.5 1460.7,64.3 1421.9,34.2 1395.2,34.2 
	1395.5,131.7 "/>
<g>
	<g>
		<polygon class="st0" points="1272.4,292.1 1299.1,292.1 1298.8,194.6 1260.1,164.5 1233.4,164.5 1233.6,262 		"/>
	</g>
</g>
<g>
	<path class="st0" d="M640.2,94.6H513.1v112l33.3,25.9c1.3,0.7,2.8,1.1,4.3,1.1h116.2c4.8,0,8.6-3.9,8.6-8.6v-98.4
		c0-3.1-1.7-5.9-4.3-7.5L640.2,94.6z"/>
</g>
<path class="st0" d="M1032.5,150.9c9.1,7.7,20,11.6,32.6,11.6c10.7,0,20.4-2.9,28.7-8.6c8.4-5.7,14.3-13.8,17.6-23.9l0.8-2.6
	l-38.8-30.1h-27.2c0.6-1,1.4-2,2.2-2.9c2.1-2.3,4.6-4,7.4-5.1h13.4l11.9,8.7h31l-0.8-2.6c-3.3-10-9.1-17.9-17.2-23.6l-39.2-30.4
	c-8.4-5.7-18-8.6-28.7-8.6c-13.8,0-25.7,4.7-35.3,14.1s-14.4,21.4-14.4,35.7s4.9,26.4,14.6,35.7L1032.5,150.9z"/>
<path class="st0" d="M1068.1,281.3c9.1,7.7,20,11.6,32.6,11.6c10.7,0,20.4-2.9,28.7-8.6c8.4-5.7,14.3-13.8,17.6-23.9l0.8-2.6
	l-38.8-30.1h-27.2c0.6-1,1.4-2,2.2-2.9c2.1-2.3,4.6-4,7.4-5.1h13.4l11.9,8.7h31l-0.8-2.6c-3.3-10-9.1-17.9-17.2-23.6l-39.2-30.4
	c-8.4-5.7-18-8.6-28.7-8.6c-13.8,0-25.7,4.7-35.3,14.1c-9.6,9.4-14.4,21.4-14.4,35.7s4.9,26.4,14.6,35.7L1068.1,281.3z"/>
<polygon class="st0" points="1541.9,122.7 1560.8,122.7 1560.7,101.4 1539.9,85.3 1564.7,85.3 1564.6,64 1525.8,33.9 1465.5,33.9 
	1465.7,131.7 1504.5,161.7 1564.8,161.7 1564.8,140.5 "/>
<path class="st0" d="M932.4,292.1l-0.2-97.5l-38.8-30.1h-29.3l-12.4,30.1h-25.9l-12.5-30.1H784l0.2,97.5l38.8,30.1h26.6v-14.3
	l18.4,14.3h19.5l4.4-10.8l13.9,10.8H932.4z"/>
<path class="st0" d="M1043.3,292.1l-33.8-97.7l-38.8-30.1h-30.4L906.8,262l38.8,30.1H974l5.1-15.7h15.6l20.3,15.7H1043.3z"/>
<g>
	<g>
		<g>
			<path class="st3" d="M1482.3,265.9c84,0,234.1,39.7,234.1-32.5"/>
		</g>
		<g>
			<path class="st3" d="M1478.2,228.1c61.4,0,205.8,71,205.8,5.2"/>
		</g>
		<g>
			<path class="st3" d="M1482.3,189.9c63.8,0,169.5,94.2,169.5,43.5"/>
		</g>
		<g>
			<path class="st3" d="M908.8,146.7c-6.7,24.3,69.6-3.4,69.6,19.4"/>
		</g>
		<g>
			<path class="st3" d="M1127.9,146.7c0,17.3,36-1.9,36,19.2"/>
		</g>
		<g>
			<path class="st3" d="M1295.6,146.7c5.3,11.7,25.3,4.4,25.3,19.4"/>
		</g>
		<g>
			<path class="st3" d="M556.5,100C587.3,11.6,794-19.6,794,35.7"/>
		</g>
		<g>
			<path class="st3" d="M599.3,100c21-81.2,168.5-112,168.5-64.3"/>
		</g>
		<g>
			<path class="st3" d="M636.6,98.7c0-58.9,104.9-108,104.9-62.9"/>
		</g>
	</g>
</g>
<g>
	<polygon class="st1" points="1712.4,206.7 1600.3,206.7 1600.3,94.6 1615.4,79.6 1727.4,79.6 1727.4,191.7 	"/>
	<rect x="1615.4" y="79.6" class="st4" width="112" height="112"/>
	<polygon class="st2" points="1615.4,79.6 1600.3,94.6 1600.3,206.7 1615.4,191.7 	"/>
</g>
<path class="st5" d="M1696.3,197.8c-3.9,0-7.1,1.6-7.1,3v1v8.5v1c0,1.4,3.2,3,7.1,3s7.1-1.6,7.1-3v-1v-8.5v-1
	C1703.4,199.4,1700.2,197.8,1696.3,197.8z"/>
<path class="st5" d="M1300.8,147c-3.9,0-7.1,1.6-7.1,3v1v8.5v1c0,1.4,3.2,3,7.1,3c3.9,0,7.1-1.6,7.1-3v-1V151v-1
	C1308,148.6,1304.8,147,1300.8,147z"/>
<path class="st6" d="M1664,197.8c-3.9,0-7.1,1.6-7.1,3v1v8.5v1c0,1.4,3.2,3,7.1,3s7.1-1.6,7.1-3v-1v-8.5v-1
	C1671.1,199.4,1668,197.8,1664,197.8z"/>
<path class="st6" d="M1143.8,146.9c-3.9,0-7.1,1.6-7.1,3v1v8.5v1c0,1.4,3.2,3,7.1,3c3.9,0,7.1-1.6,7.1-3v-1v-8.5v-1
	C1150.9,148.5,1147.7,146.9,1143.8,146.9z"/>
<path class="st7" d="M1631.7,197.8c-3.9,0-7.1,1.6-7.1,3v1v8.5v1c0,1.4,3.2,3,7.1,3s7.1-1.6,7.1-3v-1v-8.5v-1
	C1638.9,199.4,1635.7,197.8,1631.7,197.8z"/>
<path class="st5" d="M774,16.7c-3.9,0-7.1,1.6-7.1,3v1v8.5v1c0,1.4,3.2,3,7.1,3s7.1-1.6,7.1-3v-1v-8.5v-1
	C781.1,18.3,777.9,16.7,774,16.7z"/>
<path class="st6" d="M747.7,16.7c-3.9,0-7.1,1.6-7.1,3v1v8.5v1c0,1.4,3.2,3,7.1,3c3.9,0,7.1-1.6,7.1-3v-1v-8.5v-1
	C754.8,18.3,751.6,16.7,747.7,16.7z"/>
<path class="st7" d="M721.4,16.7c-3.9,0-7.1,1.6-7.1,3v1v8.5v1c0,1.4,3.2,3,7.1,3c3.9,0,7.1-1.6,7.1-3v-1v-8.5v-1
	C728.6,18.3,725.4,16.7,721.4,16.7z"/>
<path class="st7" d="M958.3,147c-3.9,0-7.1,1.6-7.1,3v1v8.5v1c0,1.4,3.2,3,7.1,3s7.1-1.6,7.1-3v-1V151v-1
	C965.4,148.6,962.2,147,958.3,147z"/>
<path id="XMLID_1_" class="st1" d="M1643.5,126.3v18.6h12.4l15.5,15.5v-49.6l-15.5,15.5L1643.5,126.3L1643.5,126.3z M1685.3,135.7
	c0-5.5-3.2-10.2-7.8-12.5v25C1682.2,145.9,1685.3,141.1,1685.3,135.7z M1677.6,108.4v6.4c9,2.7,15.5,11,15.5,20.8
	s-6.5,18.2-15.5,20.8v6.4c12.4-2.8,21.7-13.9,21.7-27.2S1690,111.3,1677.6,108.4z"/>
<g>
	<polygon class="st1" points="781.8,33.9 781.9,55.1 756.4,55.1 756.6,131.3 729.9,131.3 729.8,55.1 704.4,55.1 704.3,33.9 	"/>
</g>
<g>
	<polygon class="st1" points="790.6,25.2 790.7,46.4 781.9,55.1 781.8,33.9 	"/>
</g>
<g>
	<polygon class="st1" points="790.7,46.4 781.9,55.1 756.4,55.1 765.2,46.4 	"/>
</g>
<g>
	<polygon class="st1" points="713.1,25.2 790.6,25.2 781.8,33.9 704.3,33.9 	"/>
</g>
<g>
	<polygon class="st1" points="738.6,46.4 729.8,55.1 704.4,55.1 713.2,46.4 	"/>
</g>
<g>
	<polygon class="st2" points="713.2,46.4 704.4,55.1 704.3,33.9 713.1,25.2 	"/>
</g>
<g>
	<polygon class="st1" points="765.2,46.4 765.4,122.7 756.6,131.3 756.4,55.1 	"/>
</g>
<g>
	<polygon class="st1" points="765.4,122.7 756.6,131.3 729.9,131.3 738.7,122.7 	"/>
</g>
<g>
	<polygon class="st2" points="738.7,122.7 729.9,131.3 729.8,55.1 738.6,46.4 	"/>
</g>
<g>
	<polygon class="st1" points="858.5,33.6 858.5,54.9 824.8,54.9 824.8,71 854.6,71 854.6,92.3 824.9,92.3 824.9,110.1 858.6,110.1 
		858.7,131.3 798.3,131.3 798.1,33.6 	"/>
</g>
<g>
	<polygon class="st1" points="867.3,24.9 867.3,46.2 858.5,54.9 858.5,33.6 	"/>
</g>
<g>
	<polygon class="st1" points="867.3,46.2 858.5,54.9 824.8,54.9 833.6,46.2 	"/>
</g>
<g>
	<polygon class="st1" points="806.9,24.9 867.3,24.9 858.5,33.6 798.1,33.6 	"/>
</g>
<g>
	<polygon class="st1" points="863.4,62.4 863.4,83.6 854.6,92.3 854.6,71 	"/>
</g>
<g>
	<polygon class="st1" points="833.6,46.2 833.6,62.4 824.8,71 824.8,54.9 	"/>
</g>
<g>
	<polygon class="st1" points="833.6,62.4 863.4,62.4 854.6,71 824.8,71 	"/>
</g>
<g>
	<polygon class="st1" points="863.4,83.6 854.6,92.3 824.9,92.3 833.7,83.6 	"/>
</g>
<g>
	<polygon class="st1" points="867.4,101.4 867.5,122.7 858.7,131.3 858.6,110.1 	"/>
</g>
<g>
	<polygon class="st1" points="833.7,101.4 867.4,101.4 858.6,110.1 824.9,110.1 	"/>
</g>
<g>
	<polygon class="st1" points="833.7,83.6 833.7,101.4 824.9,110.1 824.9,92.3 	"/>
</g>
<g>
	<polygon class="st1" points="867.5,122.7 858.7,131.3 798.3,131.3 807.1,122.7 	"/>
</g>
<g>
	<polygon class="st2" points="807.1,122.7 798.3,131.3 798.1,33.6 806.9,24.9 	"/>
</g>
<g>
	<path class="st1" d="M1026.3,32.5c10.7,0,20.4,2.9,28.7,8.6c8.4,5.7,14.3,13.8,17.7,23.9l0.8,2.6h-31l-0.6-1.1
		c-3.2-6.2-8.2-9.2-15.3-9.2c-7.3,0-12.8,2.2-16.9,6.7c-4.1,4.5-6.2,10.6-6.2,18.3c0,7.6,2.1,13.8,6.2,18.3c4.1,4.5,9.7,6.7,17,6.7
		c7.1,0,12-3,15.2-9.2l0.5-1.1h31l-0.8,2.6c-3.3,10.1-9.2,18.2-17.6,23.9c-8.3,5.7-18,8.6-28.7,8.6c-13.8,0-25.7-4.7-35.3-14.1
		s-14.5-21.4-14.6-35.7c0-14.3,4.8-26.4,14.4-35.7C1000.6,37.3,1012.5,32.5,1026.3,32.5z"/>
</g>
<g>
	<polygon class="st1" points="1081.5,56.4 1082.4,59 1073.6,67.6 1072.7,65.1 	"/>
</g>
<g>
	<path class="st1" d="M1035.1,23.8c10.7,0,20.4,2.9,28.7,8.6c8.4,5.7,14.3,13.8,17.7,23.9l-8.8,8.7c-3.3-10.1-9.3-18.2-17.7-23.9
		s-18-8.6-28.7-8.6L1035.1,23.8z"/>
</g>
<g>
	<polygon class="st1" points="1082.4,59 1073.6,67.6 1042.6,67.6 1051.4,59 	"/>
</g>
<g>
	<polygon class="st1" points="1082.5,88.3 1081.6,90.9 1072.8,99.6 1073.7,97 	"/>
</g>
<linearGradient id="SVGID_1_" gradientUnits="userSpaceOnUse" x1="1019.7041" y1="210.0241" x2="1043.1827" y2="233.5027" gradientTransform="matrix(1 0 0 -1 0 282.38)">
	<stop  offset="0" style="stop-color:#BBBDBF"/>
	<stop  offset="1" style="stop-color:#A6A8AB"/>
</linearGradient>
<path class="st8" d="M1050.8,57.9c-3.2-6.2-8.2-9.2-15.3-9.2c-6.9,0-12.2,1.9-16.2,5.9l-8.8,8.7c4-4,9.3-5.9,16.2-5.9
	c7.1,0,12,3,15.3,9.2l0.6,1.1l8.8-8.7L1050.8,57.9z"/>
<g>
	<polygon class="st1" points="1051.5,88.3 1082.5,88.3 1073.7,97 1042.7,97 	"/>
</g>
<g>
	<polygon class="st1" points="1050.9,89.4 1042.1,98.1 1042.7,97 1051.5,88.3 	"/>
</g>
<g>
	<path class="st1" d="M999.8,37.9c9.6-9.3,21.4-14.1,35.3-14.1l-8.8,8.7c-13.8,0-25.7,4.7-35.3,14.1C993.7,44,997.2,40.5,999.8,37.9
		z"/>
</g>
<g>
	<path class="st1" d="M1061.4,118.4c5.2-5.1,9-11.4,11.4-18.8l8.8-8.7c-2.4,7.4-6.2,13.7-11.4,18.8
		C1067.6,112.4,1064.1,115.8,1061.4,118.4z"/>
</g>
<g>
	<path class="st1" d="M1047.5,94.2l-8.8,8.7c1.3-1.3,2.5-2.9,3.4-4.8l8.8-8.7C1049.9,91.3,1048.8,92.9,1047.5,94.2z"/>
</g>
<g>
	<path class="st1" d="M1019.4,54.6c-0.3,0.3-0.5,0.5-0.8,0.8c-4.1,4.5-6.2,10.6-6.2,18.3c0,7.6,2.1,13.8,6.2,18.3
		c4.1,4.5,9.7,6.7,17,6.7c4.9,0,8.8-1.4,11.8-4.4l-8.8,8.7c-3,3-6.9,4.4-11.8,4.4c-7.3,0-12.8-2.2-17-6.7
		c-4.1-4.5-6.2-10.6-6.2-18.3c0-7.6,2.1-13.8,6.2-18.3c0.2-0.3,0.5-0.5,0.8-0.8C1013.2,60.7,1016.8,57.2,1019.4,54.6z"/>
</g>
<g>
	
		<linearGradient id="SVGID_2_" gradientUnits="userSpaceOnUse" x1="990.9708" y1="164.5452" x2="1035.3228" y2="208.8972" gradientTransform="matrix(1 0 0 -1 0 282.38)">
		<stop  offset="0" style="stop-color:#BBBDBF"/>
		<stop  offset="1" style="stop-color:#A6A8AB"/>
	</linearGradient>
	<path class="st9" d="M1070.2,109.8l-8.8,8.7c-1.9,1.9-3.9,3.6-6.2,5.1c-8.3,5.7-18,8.6-28.7,8.6c-13.8,0-25.7-4.7-35.3-14.1
		c-9.6-9.4-14.5-21.4-14.6-35.7c0-14.3,4.8-26.4,14.4-35.7l8.8-8.7c-9.6,9.4-14.4,21.4-14.4,35.7s4.9,26.4,14.6,35.7
		c9.6,9.4,21.5,14.1,35.3,14.1c10.7,0,20.4-2.9,28.7-8.6C1066.3,113.3,1068.3,111.6,1070.2,109.8z"/>
</g>
<g>
	<path class="st1" d="M935.3,33.6l33.8,97.7h-28.5l-5.2-15.7h-30.6l-5.1,15.7h-28.4l33.5-97.7C904.8,33.6,935.3,33.6,935.3,33.6z
		 M911.8,94.4h16.6L920,69.3L911.8,94.4"/>
</g>
<g>
	<polygon class="st1" points="913.7,24.9 944.1,24.9 935.3,33.6 904.9,33.6 	"/>
</g>
<g>
	<polygon class="st1" points="944.1,24.9 977.9,122.7 969.2,131.3 935.3,33.6 	"/>
</g>
<g>
	<polygon class="st1" points="937.2,85.7 928.4,94.4 920,69.3 928.8,60.6 	"/>
</g>
<g>
	<polygon class="st1" points="928.8,60.6 920.6,85.7 911.8,94.4 920,69.3 	"/>
</g>
<g>
	<polygon class="st1" points="920.6,85.7 937.2,85.7 928.4,94.4 911.8,94.4 	"/>
</g>
<g>
	<polygon class="st2" points="949.5,122.7 940.7,131.3 935.5,115.6 944.3,106.9 	"/>
</g>
<g>
	<polygon class="st1" points="977.9,122.7 969.2,131.3 940.7,131.3 949.5,122.7 	"/>
</g>
<g>
	<polygon class="st1" points="944.3,106.9 935.5,115.6 904.8,115.6 913.6,106.9 	"/>
</g>
<g>
	<polygon class="st1" points="913.6,106.9 908.5,122.7 899.7,131.3 904.8,115.6 	"/>
</g>
<g>
	<polygon class="st2" points="880.1,122.7 871.3,131.3 904.9,33.6 913.7,24.9 	"/>
</g>
<g>
	<polygon class="st1" points="908.5,122.7 899.7,131.3 871.3,131.3 880.1,122.7 	"/>
</g>
<g>
	<polygon class="st1" points="1175.4,33.9 1175.6,131.3 1149,131.3 1148.9,92.6 1116.9,92.6 1116.9,131.3 1090.3,131.3 1090.1,33.9 
		1116.7,33.9 1116.8,71.3 1148.9,71.3 1148.8,33.9 	"/>
</g>
<g>
	<polygon class="st1" points="1157.6,25.2 1184.2,25.2 1175.4,33.9 1148.8,33.9 	"/>
</g>
<g>
	<polygon class="st2" points="1157.6,62.6 1148.9,71.3 1148.8,33.9 1157.6,25.2 	"/>
</g>
<g>
	<polygon class="st1" points="1098.9,25.2 1125.5,25.2 1116.7,33.9 1090.1,33.9 	"/>
</g>
<g>
	<polygon class="st1" points="1125.6,62.6 1157.6,62.6 1148.9,71.3 1116.8,71.3 	"/>
</g>
<g>
	<polygon class="st1" points="1125.5,25.2 1125.6,62.6 1116.8,71.3 1116.7,33.9 	"/>
</g>
<g>
	<polygon class="st1" points="1184.2,25.2 1184.4,122.7 1175.6,131.3 1175.4,33.9 	"/>
</g>
<g>
	<polygon class="st1" points="1157.7,83.9 1148.9,92.6 1116.9,92.6 1125.6,83.9 	"/>
</g>
<g>
	<polygon class="st1" points="1184.4,122.7 1175.6,131.3 1149,131.3 1157.8,122.7 	"/>
</g>
<g>
	<polygon class="st2" points="1157.8,122.7 1149,131.3 1148.9,92.6 1157.7,83.9 	"/>
</g>
<g>
	<polygon class="st1" points="1125.6,83.9 1125.7,122.7 1116.9,131.3 1116.9,92.6 	"/>
</g>
<g>
	<polygon class="st1" points="1125.7,122.7 1116.9,131.3 1090.3,131.3 1099.1,122.7 	"/>
</g>
<g>
	<polygon class="st2" points="1099.1,122.7 1090.3,131.3 1090.1,33.9 1098.9,25.2 	"/>
</g>
<g>
	<path class="st1" d="M1252.7,33.6l33.8,97.7H1258l-5.2-15.7h-30.6l-5.1,15.7h-28.4l33.5-97.7C1222.2,33.6,1252.7,33.6,1252.7,33.6z
		 M1229.2,94.4h16.6l-8.4-25.1L1229.2,94.4"/>
</g>
<g>
	<polygon class="st1" points="1231,24.9 1261.5,24.9 1252.7,33.6 1222.2,33.6 	"/>
</g>
<g>
	<polygon class="st1" points="1261.5,24.9 1295.3,122.7 1286.5,131.3 1252.7,33.6 	"/>
</g>
<g>
	<polygon class="st1" points="1254.5,85.7 1245.7,94.4 1237.4,69.3 1246.2,60.6 	"/>
</g>
<g>
	<polygon class="st1" points="1246.2,60.6 1237.9,85.7 1229.2,94.4 1237.4,69.3 	"/>
</g>
<g>
	<polygon class="st1" points="1237.9,85.7 1254.5,85.7 1245.7,94.4 1229.2,94.4 	"/>
</g>
<g>
	<polygon class="st2" points="1266.8,122.7 1258,131.3 1252.8,115.6 1261.6,106.9 	"/>
</g>
<g>
	<polygon class="st1" points="1295.3,122.7 1286.5,131.3 1258,131.3 1266.8,122.7 	"/>
</g>
<g>
	<polygon class="st1" points="1261.6,106.9 1252.8,115.6 1222.2,115.6 1231,106.9 	"/>
</g>
<g>
	<polygon class="st1" points="1231,106.9 1225.8,122.7 1217,131.3 1222.2,115.6 	"/>
</g>
<g>
	<polygon class="st2" points="1197.5,122.7 1188.7,131.3 1222.2,33.6 1231,24.9 	"/>
</g>
<g>
	<polygon class="st1" points="1225.8,122.7 1217,131.3 1188.7,131.3 1197.5,122.7 	"/>
</g>
<g>
	<path class="st1" d="M1371,88.4c4,4.7,6.1,10.3,6.1,16.6c0,8-3,14.5-8.9,19.3c-5.8,4.7-13.8,7-24,7h-44.7l-0.2-97.5h42.5
		c9.9,0,17.9,2.5,23.9,7.4c6.1,5,9.2,11.4,9.2,19.1c0,9.6-4.6,16.7-13.9,21.1C1365,82.9,1368.3,85.2,1371,88.4z M1347.7,107.8
		c1.6-1.5,2.4-3.5,2.4-6.3s-0.8-4.9-2.4-6.5c-1.6-1.6-3.6-2.4-6.2-2.4h-15.4V110h15.2C1343.9,110.1,1346,109.3,1347.7,107.8
		 M1326,55.1v16.3h13c2.8,0,5-0.7,6.6-2.1c1.5-1.3,2.3-3.3,2.3-6c0-2.8-0.8-4.8-2.3-6.1c-1.6-1.4-3.8-2.1-6.6-2.1H1326"/>
</g>
<g>
	<path class="st1" d="M1368.6,76.2c4.2-4.1,6.3-9.4,6.3-15.9c0-7.7-3.1-14.1-9.2-19.1c-6-4.9-14-7.4-23.9-7.4l8.8-8.7
		c9.9,0,17.9,2.5,23.9,7.4c6.1,5,9.2,11.4,9.2,19.1c0,6.5-2.1,11.8-6.3,15.9C1374.8,70.2,1371.3,73.6,1368.6,76.2z"/>
</g>
<g>
	<path class="st1" d="M1377.4,67.6l-8.8,8.7c-2,2-4.6,3.7-7.6,5.2l8.8-8.7C1372.9,71.3,1375.4,69.6,1377.4,67.6z"/>
</g>
<g>
	<path class="st1" d="M1369.8,72.7c3.9,1.5,7.3,3.8,10,7l-8.8,8.7c-2.7-3.2-6.1-5.5-10-7C1363.7,78.8,1367.2,75.3,1369.8,72.7z"/>
</g>
<g>
	<path class="st1" d="M1354.7,60.4l-8.8,8.7c1.3-1.3,2-3.2,1.9-5.7c0-2.8-0.8-4.8-2.3-6.1c-1.6-1.4-3.8-2.1-6.6-2.1l8.8-8.7
		c2.8,0,5,0.7,6.6,2.1c1.6,1.3,2.3,3.4,2.3,6.1C1356.7,57.2,1356,59.1,1354.7,60.4z"/>
</g>
<g>
	<polygon class="st1" points="1347.7,46.4 1338.9,55.1 1326,55.1 1334.8,46.4 	"/>
</g>
<g>
	<path class="st1" d="M1345.9,69.1c-0.1,0.1-0.2,0.2-0.3,0.3c-1.6,1.4-3.8,2.1-6.6,2.1l8.8-8.7c2.8,0,5-0.7,6.6-2.1
		c0.1-0.1,0.2-0.2,0.3-0.3C1352.1,63,1348.6,66.5,1345.9,69.1z"/>
</g>
<g>
	<polygon class="st1" points="1308.1,25.2 1350.6,25.2 1341.8,33.9 1299.3,33.9 	"/>
</g>
<g>
	<polygon class="st1" points="1334.8,46.4 1334.9,62.8 1326.1,71.4 1326,55.1 	"/>
</g>
<g>
	<polygon class="st1" points="1334.9,62.8 1347.8,62.8 1339,71.4 1326.1,71.4 	"/>
</g>
<g>
	<path class="st1" d="M1370.2,122.6c4.6-4.6,7-10.5,7-17.6c0-6.3-2.1-11.9-6.1-16.6l8.8-8.7c4,4.7,6.1,10.3,6.1,16.6
		c0,7.1-2.3,13-7,17.6C1376.3,116.5,1372.8,120,1370.2,122.6z"/>
</g>
<g>
	<path class="st1" d="M1356.7,98.9l-8.8,8.7c1.5-1.5,2.2-3.5,2.2-6.1c0-2.8-0.8-4.9-2.4-6.5c-1.6-1.6-3.6-2.4-6.2-2.4l8.8-8.7
		c2.6,0,4.6,0.8,6.2,2.4c1.6,1.6,2.4,3.7,2.4,6.5C1358.9,95.5,1358.2,97.5,1356.7,98.9z"/>
</g>
<g>
	<path class="st1" d="M1347.9,107.6c-0.1,0.1-0.1,0.1-0.2,0.2l8.8-8.7c0.1-0.1,0.1-0.1,0.2-0.2C1354,101.5,1350.5,105,1347.9,107.6z
		"/>
</g>
<g>
	<polygon class="st1" points="1350.3,84 1341.5,92.7 1326.1,92.7 1334.9,84 	"/>
</g>
<g>
	<path class="st1" d="M1350.1,101.4c2.6,0,4.7-0.7,6.4-2.3l-8.8,8.7c-1.7,1.5-3.8,2.3-6.4,2.3L1350.1,101.4z"/>
</g>
<g>
	<polygon class="st1" points="1334.9,84 1334.9,101.4 1326.2,110.1 1326.1,92.7 	"/>
</g>
<g>
	<polygon class="st1" points="1334.9,101.4 1350.1,101.4 1341.3,110.1 1326.2,110.1 	"/>
</g>
<g>
	<path class="st1" d="M1379,113.9l-8.8,8.7c-0.6,0.6-1.2,1.2-1.9,1.7c-5.8,4.7-13.8,7-24,7l8.8-8.7c10.2,0,18.2-2.4,24-7
		C1377.7,115.1,1378.4,114.5,1379,113.9z"/>
</g>
<g>
	<polygon class="st1" points="1353.1,122.7 1344.3,131.3 1299.6,131.3 1308.4,122.7 	"/>
</g>
<g>
	<polygon class="st2" points="1308.4,122.7 1299.6,131.3 1299.3,33.9 1308.1,25.2 	"/>
</g>
<g>
	<polygon class="st1" points="1422.1,33.9 1422.3,110.1 1450.6,110.1 1450.6,131.3 1395.7,131.3 1395.5,33.9 	"/>
</g>
<g>
	<polygon class="st1" points="1404.3,25.2 1430.9,25.2 1422.1,33.9 1395.5,33.9 	"/>
</g>
<g>
	<polygon class="st1" points="1459.4,101.4 1459.4,122.7 1450.6,131.3 1450.6,110.1 	"/>
</g>
<g>
	<polygon class="st1" points="1430.9,25.2 1431.1,101.4 1422.3,110.1 1422.1,33.9 	"/>
</g>
<g>
	<polygon class="st1" points="1431.1,101.4 1459.4,101.4 1450.6,110.1 1422.3,110.1 	"/>
</g>
<g>
	<polygon class="st1" points="1459.4,122.7 1450.6,131.3 1395.7,131.3 1404.5,122.7 	"/>
</g>
<g>
	<polygon class="st2" points="1404.5,122.7 1395.7,131.3 1395.5,33.9 1404.3,25.2 	"/>
</g>
<g>
	<polygon class="st1" points="1526.1,33.6 1526.1,54.9 1492.4,54.9 1492.4,71 1522.2,71 1522.2,92.3 1492.5,92.3 1492.5,110.1 
		1526.3,110.1 1526.3,131.3 1465.9,131.3 1465.7,33.6 	"/>
</g>
<g>
	<polygon class="st1" points="1534.9,24.9 1534.9,46.2 1526.1,54.9 1526.1,33.6 	"/>
</g>
<g>
	<polygon class="st1" points="1534.9,46.2 1526.1,54.9 1492.4,54.9 1501.2,46.2 	"/>
</g>
<g>
	<polygon class="st1" points="1474.5,24.9 1534.9,24.9 1526.1,33.6 1465.7,33.6 	"/>
</g>
<g>
	<polygon class="st1" points="1531,62.4 1531,83.6 1522.2,92.3 1522.2,71 	"/>
</g>
<g>
	<polygon class="st1" points="1501.2,46.2 1501.2,62.4 1492.4,71 1492.4,54.9 	"/>
</g>
<g>
	<polygon class="st1" points="1501.2,62.4 1531,62.4 1522.2,71 1492.4,71 	"/>
</g>
<g>
	<polygon class="st1" points="1531,83.6 1522.2,92.3 1492.5,92.3 1501.3,83.6 	"/>
</g>
<g>
	<polygon class="st1" points="1535.1,101.4 1535.1,122.7 1526.3,131.3 1526.3,110.1 	"/>
</g>
<g>
	<polygon class="st1" points="1501.3,101.4 1535.1,101.4 1526.3,110.1 1492.5,110.1 	"/>
</g>
<g>
	<polygon class="st1" points="1501.3,83.6 1501.3,101.4 1492.5,110.1 1492.5,92.3 	"/>
</g>
<g>
	<polygon class="st1" points="1535.1,122.7 1526.3,131.3 1465.9,131.3 1474.7,122.7 	"/>
</g>
<g>
	<polygon class="st2" points="1474.7,122.7 1465.9,131.3 1465.7,33.6 1474.5,24.9 	"/>
</g>
<g>
	<polygon class="st1" points="876,253 867.3,261.7 867.2,216.9 875.9,208.3 	"/>
</g>
<g>
	<polygon class="st2" points="893.7,164.2 893.9,261.7 867.3,261.7 867.2,216.9 848.9,261.7 829.4,261.7 810.9,216.9 811,261.7 
		784.4,261.7 784.2,164.2 813.5,164.2 839.1,225.5 864.4,164.2 	"/>
</g>
<g>
	<polygon class="st1" points="873.2,155.5 902.5,155.5 893.7,164.2 864.4,164.2 	"/>
</g>
<g>
	<polygon class="st1" points="902.5,155.5 902.7,253 893.9,261.7 893.7,164.2 	"/>
</g>
<g>
	<polygon class="st1" points="793,155.5 822.3,155.5 813.5,164.2 784.2,164.2 	"/>
</g>
<g>
	<polygon class="st2" points="847.9,216.8 839.1,225.5 864.4,164.2 873.2,155.5 	"/>
</g>
<g>
	<polygon class="st1" points="822.3,155.5 847.9,216.8 839.1,225.5 813.5,164.2 	"/>
</g>
<g>
	<polygon class="st1" points="902.7,253 893.9,261.7 867.3,261.7 876,253 	"/>
</g>
<g>
	<polygon class="st1" points="875.9,208.3 857.7,253 848.9,261.7 867.2,216.9 	"/>
</g>
<g>
	<polygon class="st1" points="857.7,253 848.9,261.7 829.4,261.7 838.2,253 	"/>
</g>
<g>
	<polygon class="st2" points="838.2,253 829.4,261.7 810.9,216.9 819.7,208.3 	"/>
</g>
<g>
	<polygon class="st1" points="819.7,208.3 819.8,253 811,261.7 810.9,216.9 	"/>
</g>
<g>
	<polygon class="st2" points="793.2,253 784.4,261.7 784.2,164.2 793,155.5 	"/>
</g>
<g>
	<polygon class="st1" points="819.8,253 811,261.7 784.4,261.7 793.2,253 	"/>
</g>
<g>
	<path class="st1" d="M1061.9,162.9c10.7,0,20.4,2.9,28.7,8.6c8.4,5.7,14.3,13.8,17.7,23.9l0.8,2.6h-31l-0.6-1.1
		c-3.2-6.2-8.2-9.2-15.3-9.2c-7.3,0-12.8,2.2-16.9,6.7c-4.1,4.5-6.2,10.6-6.2,18.3c0,7.6,2.1,13.8,6.2,18.3c4.1,4.5,9.7,6.7,17,6.7
		c7.1,0,12-3,15.2-9.2l0.5-1.1h31l-0.8,2.6c-3.3,10.1-9.2,18.2-17.6,23.9c-8.3,5.7-18,8.6-28.7,8.6c-13.8,0-25.7-4.7-35.3-14.1
		c-9.6-9.4-14.5-21.4-14.6-35.7c0-14.3,4.8-26.4,14.4-35.7C1036.2,167.6,1048.1,162.9,1061.9,162.9z"/>
</g>
<g>
	<polygon class="st1" points="1117.2,186.7 1118,189.3 1109.2,198 1108.4,195.4 	"/>
</g>
<g>
	<path class="st1" d="M1070.7,154.2c10.7,0,20.4,2.9,28.7,8.6c8.4,5.7,14.3,13.8,17.7,23.9l-8.8,8.7c-3.3-10.1-9.3-18.2-17.7-23.9
		c-8.4-5.7-18-8.6-28.7-8.6L1070.7,154.2z"/>
</g>
<g>
	<polygon class="st1" points="1118,189.3 1109.2,198 1078.2,198 1087,189.3 	"/>
</g>
<g>
	<polygon class="st1" points="1118.1,218.7 1117.2,221.3 1108.4,229.9 1109.3,227.4 	"/>
</g>
<linearGradient id="SVGID_3_" gradientUnits="userSpaceOnUse" x1="1055.3011" y1="79.7212" x2="1078.7678" y2="103.1878" gradientTransform="matrix(1 0 0 -1 0 282.38)">
	<stop  offset="0" style="stop-color:#BBBDBF"/>
	<stop  offset="1" style="stop-color:#A6A8AB"/>
</linearGradient>
<path class="st10" d="M1086.4,188.2c-3.2-6.2-8.2-9.2-15.3-9.2c-6.8,0-12.1,1.9-16.2,5.9l-8.8,8.7c4-4,9.3-5.9,16.2-5.9
	c7.1,0,12,3,15.3,9.2l0.6,1.1l8.8-8.7L1086.4,188.2z"/>
<g>
	<polygon class="st1" points="1087.1,218.7 1118.1,218.7 1109.3,227.4 1078.3,227.4 	"/>
</g>
<g>
	<polygon class="st1" points="1086.5,219.7 1077.7,228.4 1078.3,227.4 1087.1,218.7 	"/>
</g>
<g>
	<path class="st1" d="M1035.5,168.3c9.6-9.3,21.4-14.1,35.3-14.1l-8.8,8.7c-13.8,0-25.7,4.7-35.3,14.1
		C1029.3,174.4,1032.8,170.9,1035.5,168.3z"/>
</g>
<g>
	<path class="st1" d="M1097,248.8c5.2-5.1,9-11.4,11.4-18.8l8.8-8.7c-2.4,7.4-6.2,13.7-11.4,18.8
		C1103.2,242.7,1099.7,246.2,1097,248.8z"/>
</g>
<g>
	<path class="st1" d="M1083.1,224.5l-8.8,8.7c1.3-1.3,2.5-2.9,3.4-4.8l8.8-8.7C1085.5,221.6,1084.4,223.2,1083.1,224.5z"/>
</g>
<g>
	<path class="st1" d="M1055,184.9c-0.3,0.3-0.5,0.5-0.8,0.8c-4.1,4.5-6.2,10.6-6.2,18.3c0,7.6,2.1,13.8,6.2,18.3
		c4.1,4.5,9.7,6.7,17,6.7c4.9,0,8.8-1.4,11.8-4.4l-8.8,8.7c-3,3-6.9,4.4-11.8,4.4c-7.3,0-12.8-2.2-17-6.7
		c-4.1-4.5-6.2-10.6-6.2-18.3c0-7.6,2.1-13.8,6.2-18.3c0.2-0.3,0.5-0.5,0.8-0.8C1048.9,191,1052.4,187.5,1055,184.9z"/>
</g>
<g>
	
		<linearGradient id="SVGID_4_" gradientUnits="userSpaceOnUse" x1="1026.5745" y1="34.2413" x2="1070.9266" y2="78.5934" gradientTransform="matrix(1 0 0 -1 0 282.38)">
		<stop  offset="0" style="stop-color:#BBBDBF"/>
		<stop  offset="1" style="stop-color:#A6A8AB"/>
	</linearGradient>
	<path class="st11" d="M1105.8,240.1l-8.8,8.7c-1.9,1.9-3.9,3.6-6.2,5.1c-8.3,5.7-18,8.6-28.7,8.6c-13.8,0-25.7-4.7-35.3-14.1
		c-9.6-9.4-14.5-21.4-14.6-35.7c0-14.3,4.8-26.4,14.4-35.7l8.8-8.7c-9.6,9.4-14.4,21.4-14.4,35.7s4.9,26.4,14.6,35.7
		c9.6,9.3,21.5,14.1,35.3,14.1c10.7,0,20.4-2.9,28.7-8.6C1101.9,243.7,1104,242,1105.8,240.1z"/>
</g>
<g>
	<path class="st1" d="M970.9,163.9l33.8,97.7h-28.5l-5.2-15.7h-30.6l-5.1,15.7h-28.4l33.5-97.7L970.9,163.9L970.9,163.9z
		 M947.4,224.7H964l-8.4-25.1L947.4,224.7"/>
</g>
<g>
	<polygon class="st1" points="949.3,155.3 979.7,155.3 970.9,163.9 940.5,163.9 	"/>
</g>
<g>
	<polygon class="st1" points="979.7,155.3 1013.6,253 1004.8,261.7 970.9,163.9 	"/>
</g>
<g>
	<polygon class="st1" points="972.8,216 964,224.7 955.7,199.6 964.5,190.9 	"/>
</g>
<g>
	<polygon class="st1" points="964.5,190.9 956.2,216 947.4,224.7 955.7,199.6 	"/>
</g>
<g>
	<polygon class="st1" points="956.2,216 972.8,216 964,224.7 947.4,224.7 	"/>
</g>
<g>
	<polygon class="st2" points="985.1,253 976.3,261.7 971.1,246 979.9,237.3 	"/>
</g>
<g>
	<polygon class="st1" points="1013.6,253 1004.8,261.7 976.3,261.7 985.1,253 	"/>
</g>
<g>
	<polygon class="st1" points="979.9,237.3 971.1,246 940.5,246 949.2,237.3 	"/>
</g>
<g>
	<polygon class="st1" points="949.2,237.3 944.1,253 935.3,261.7 940.5,246 	"/>
</g>
<g>
	<polygon class="st2" points="915.7,253 906.9,261.7 940.5,163.9 949.3,155.3 	"/>
</g>
<g>
	<polygon class="st1" points="944.1,253 935.3,261.7 906.9,261.7 915.7,253 	"/>
</g>
<g>
	<polygon class="st1" points="1211,164.2 1211.2,261.7 1184.6,261.7 1184.5,222.9 1152.5,222.9 1152.6,261.7 1125.9,261.7 
		1125.7,164.2 1152.3,164.2 1152.4,201.6 1184.5,201.6 1184.4,164.2 	"/>
</g>
<g>
	<polygon class="st1" points="1193.2,155.5 1219.8,155.5 1211,164.2 1184.4,164.2 	"/>
</g>
<g>
	<polygon class="st2" points="1193.3,193 1184.5,201.6 1184.4,164.2 1193.2,155.5 	"/>
</g>
<g>
	<polygon class="st1" points="1134.5,155.5 1161.1,155.5 1152.3,164.2 1125.7,164.2 	"/>
</g>
<g>
	<polygon class="st1" points="1161.2,193 1193.3,193 1184.5,201.6 1152.4,201.6 	"/>
</g>
<g>
	<polygon class="st1" points="1161.1,155.5 1161.2,193 1152.4,201.6 1152.3,164.2 	"/>
</g>
<g>
	<polygon class="st1" points="1219.8,155.5 1220,253 1211.2,261.7 1211,164.2 	"/>
</g>
<g>
	<polygon class="st1" points="1193.3,214.2 1184.5,222.9 1152.5,222.9 1161.3,214.2 	"/>
</g>
<g>
	<polygon class="st1" points="1220,253 1211.2,261.7 1184.6,261.7 1193.4,253 	"/>
</g>
<g>
	<polygon class="st2" points="1193.4,253 1184.6,261.7 1184.5,222.9 1193.3,214.2 	"/>
</g>
<g>
	<polygon class="st1" points="1161.3,214.2 1161.3,253 1152.6,261.7 1152.5,222.9 	"/>
</g>
<g>
	<polygon class="st1" points="1161.3,253 1152.6,261.7 1125.9,261.7 1134.7,253 	"/>
</g>
<g>
	<polygon class="st2" points="1134.7,253 1125.9,261.7 1125.7,164.2 1134.5,155.5 	"/>
</g>
<g>
	<polygon class="st1" points="1260.3,164.2 1260.5,261.7 1233.9,261.7 1233.6,164.2 	"/>
</g>
<g>
	<polygon class="st1" points="1242.4,155.5 1269.1,155.5 1260.3,164.2 1233.6,164.2 	"/>
</g>
<g>
	<polygon class="st1" points="1269.1,155.5 1269.3,253 1260.5,261.7 1260.3,164.2 	"/>
</g>
<g>
	<polygon class="st1" points="1269.3,253 1260.5,261.7 1233.9,261.7 1242.7,253 	"/>
</g>
<g>
	<polygon class="st2" points="1242.7,253 1233.9,261.7 1233.6,164.2 1242.4,155.5 	"/>
</g>
<g>
	<polygon class="st1" points="1370.2,163.9 1370.4,261.7 1344.7,261.7 1309.6,207.4 1309.8,261.7 1283.1,261.7 1282.9,163.9 
		1308.7,163.9 1343.7,218.2 1343.6,163.9 	"/>
</g>
<g>
	<polygon class="st1" points="1352.4,155.3 1379,155.3 1370.2,163.9 1343.6,163.9 	"/>
</g>
<g>
	<polygon class="st2" points="1352.5,209.5 1343.7,218.2 1343.6,163.9 1352.4,155.3 	"/>
</g>
<g>
	<polygon class="st1" points="1317.4,155.3 1352.5,209.5 1343.7,218.2 1308.7,163.9 	"/>
</g>
<g>
	<polygon class="st1" points="1291.7,155.3 1317.4,155.3 1308.7,163.9 1282.9,163.9 	"/>
</g>
<g>
	<polygon class="st1" points="1379,155.3 1379.2,253 1370.4,261.7 1370.2,163.9 	"/>
</g>
<g>
	<polygon class="st1" points="1379.2,253 1370.4,261.7 1344.7,261.7 1353.5,253 	"/>
</g>
<g>
	<polygon class="st2" points="1353.5,253 1344.7,261.7 1309.6,207.4 1318.4,198.7 	"/>
</g>
<g>
	<polygon class="st1" points="1318.4,198.7 1318.6,253 1309.8,261.7 1309.6,207.4 	"/>
</g>
<g>
	<polygon class="st1" points="1318.6,253 1309.8,261.7 1283.1,261.7 1291.9,253 	"/>
</g>
<g>
	<polygon class="st2" points="1291.9,253 1283.1,261.7 1282.9,163.9 1291.7,155.3 	"/>
</g>
<g>
	<polygon class="st4" points="790.6,25.2 790.7,46.4 765.2,46.4 765.4,122.7 738.7,122.7 738.6,46.4 713.2,46.4 713.1,25.2 	"/>
</g>
<g>
	<polygon class="st4" points="867.3,24.9 867.3,46.2 833.6,46.2 833.6,62.4 863.4,62.4 863.4,83.6 833.7,83.6 833.7,101.4 
		867.4,101.4 867.5,122.7 807.1,122.7 806.9,24.9 	"/>
</g>
<g>
	<path class="st4" d="M1035.1,23.8c10.7,0,20.4,2.9,28.7,8.6c8.4,5.7,14.3,13.8,17.7,23.9l0.8,2.6h-31l-0.6-1.1
		c-3.2-6.2-8.2-9.2-15.3-9.2c-7.3,0-12.8,2.2-16.9,6.7c-4.1,4.5-6.2,10.6-6.2,18.3c0,7.6,2.1,13.8,6.2,18.3c4.1,4.5,9.7,6.7,17,6.7
		c7.1,0,12-3,15.2-9.2l0.5-1.1h31l-0.8,2.6c-3.3,10.1-9.2,18.2-17.6,23.9c-8.3,5.7-18,8.6-28.7,8.6c-13.8,0-25.7-4.7-35.3-14.1
		s-14.5-21.4-14.6-35.7c0-14.3,4.8-26.4,14.4-35.7C1009.4,28.6,1021.3,23.8,1035.1,23.8z"/>
</g>
<g>
	<path class="st4" d="M944.1,24.9l33.8,97.7h-28.5l-5.2-15.7h-30.6l-5.1,15.7h-28.4l33.5-97.7C913.6,24.9,944.1,24.9,944.1,24.9z
		 M920.6,85.7h16.6l-8.4-25.1L920.6,85.7"/>
</g>
<g>
	<polygon class="st4" points="1184.2,25.2 1184.4,122.7 1157.8,122.7 1157.7,83.9 1125.6,83.9 1125.7,122.7 1099.1,122.7 
		1098.9,25.2 1125.5,25.2 1125.6,62.6 1157.6,62.6 1157.6,25.2 	"/>
</g>
<g>
	<path class="st4" d="M1261.5,24.9l33.8,97.7h-28.5l-5.2-15.7H1231l-5.1,15.7h-28.4l33.5-97.7H1261.5z M1237.9,85.7h16.6l-8.4-25.1
		L1237.9,85.7"/>
</g>
<g>
	<path class="st4" d="M1379.8,79.7c4,4.7,6.1,10.3,6.1,16.6c0,8-3,14.5-8.9,19.3c-5.8,4.7-13.8,7-24,7h-44.7l-0.2-97.5h42.5
		c9.9,0,17.9,2.5,23.9,7.4c6.1,5,9.2,11.4,9.2,19.1c0,9.6-4.6,16.7-13.9,21.1C1373.8,74.2,1377.1,76.5,1379.8,79.7z M1356.5,99.1
		c1.6-1.5,2.4-3.5,2.4-6.3s-0.8-4.9-2.4-6.5c-1.6-1.6-3.6-2.4-6.2-2.4h-15.4v17.4h15.2C1352.7,101.4,1354.8,100.6,1356.5,99.1
		 M1334.8,46.4v16.3h12.9c2.8,0,5-0.7,6.6-2.1c1.5-1.3,2.3-3.3,2.3-6c0-2.8-0.8-4.8-2.3-6.1c-1.6-1.4-3.8-2.1-6.6-2.1H1334.8"/>
</g>
<g>
	<polygon class="st4" points="1430.9,25.2 1431.1,101.4 1459.4,101.4 1459.4,122.7 1404.5,122.7 1404.3,25.2 	"/>
</g>
<g>
	<polygon class="st4" points="1534.9,24.9 1534.9,46.2 1501.2,46.2 1501.2,62.4 1531,62.4 1531,83.6 1501.3,83.6 1501.3,101.4 
		1535.1,101.4 1535.1,122.7 1474.7,122.7 1474.5,24.9 	"/>
</g>
<g>
	<polygon class="st4" points="902.5,155.5 902.7,253 876,253 875.9,208.3 857.7,253 838.2,253 819.7,208.3 819.8,253 793.2,253 
		793,155.5 822.3,155.5 847.9,216.8 873.2,155.5 	"/>
</g>
<g>
	<path class="st4" d="M1070.7,154.2c10.7,0,20.4,2.9,28.7,8.6c8.4,5.7,14.3,13.8,17.7,23.9l0.8,2.6h-31l-0.6-1.1
		c-3.2-6.2-8.2-9.2-15.3-9.2c-7.3,0-12.8,2.2-16.9,6.7c-4.1,4.5-6.2,10.6-6.2,18.3c0,7.6,2.1,13.8,6.2,18.3c4.1,4.5,9.7,6.7,17,6.7
		c7.1,0,12-3,15.2-9.2l0.5-1.1h31l-0.8,2.6c-3.3,10.1-9.2,18.2-17.6,23.9c-8.3,5.7-18,8.6-28.7,8.6c-13.8,0-25.7-4.7-35.3-14.1
		c-9.6-9.4-14.5-21.4-14.6-35.7c0-14.3,4.8-26.4,14.4-35.7C1045,158.9,1056.9,154.2,1070.7,154.2z"/>
</g>
<g>
	<path class="st4" d="M979.7,155.3l33.8,97.7H985l-5.2-15.7h-30.6l-5.1,15.7h-28.4l33.5-97.7H979.7z M956.2,216h16.6l-8.4-25.1
		L956.2,216"/>
</g>
<g>
	<polygon class="st4" points="1219.8,155.5 1220,253 1193.4,253 1193.3,214.2 1161.3,214.2 1161.3,253 1134.7,253 1134.5,155.5 
		1161.1,155.5 1161.2,193 1193.3,193 1193.2,155.5 	"/>
</g>
<g>
	<polygon class="st4" points="1269.1,155.5 1269.3,253 1242.7,253 1242.4,155.5 	"/>
</g>
<g>
	<polygon class="st4" points="1379,155.3 1379.2,253 1353.5,253 1318.4,198.7 1318.6,253 1291.9,253 1291.7,155.3 1317.4,155.3 
		1352.5,209.5 1352.4,155.3 	"/>
</g>
<ellipse class="st12" cx="888.7" cy="127.6" rx="5" ry="1.3"/>
<ellipse class="st12" cx="1107.8" cy="127.6" rx="5" ry="1.3"/>
<ellipse class="st12" cx="1276.7" cy="127.6" rx="5" ry="1.3"/>
<g>
	<path class="st13" d="M1462.2,246.8c84,0,234.1,39.7,234.1-32.5"/>
	<path class="st13" d="M1458.2,209.1c61.4,0,205.8,71,205.8,5.2"/>
	<path class="st13" d="M1462.2,170.8c34.6,0,169.5,94.2,169.5,43.5"/>
	<path class="st13" d="M888.7,127.6c-6.7,24.3,69.6-3.4,69.6,19.4"/>
	<path class="st13" d="M1107.8,127.6c0,17.3,36-1.9,36,19.2"/>
	<path class="st13" d="M1275.6,127.6c5.3,11.7,25.3,4.4,25.3,19.4"/>
	<path class="st13" d="M536.4,80.9C567.2-7.5,774-38.7,774,16.7"/>
	<path class="st13" d="M579.2,80.9c21-81.2,168.5-112,168.5-64.3"/>
	<path class="st13" d="M616.6,79.6c0-58.9,104.9-108,104.9-62.9"/>
</g>
<g>
	<polygon class="st1" points="625.1,206.7 513.1,206.7 513.1,94.6 528.1,79.6 640.2,79.6 640.2,191.7 	"/>
	<rect x="528.1" y="79.6" class="st4" width="112" height="112"/>
	<polygon class="st2" points="528.1,79.6 513.1,94.6 513.1,206.7 528.1,191.7 	"/>
</g>
<g>
	<g>
		<ellipse class="st1" cx="582.5" cy="136.5" rx="8.8" ry="8.8"/>
		<path class="st1" d="M574.2,108.9l-5,5.5h-8.7c-3,0-5.5,2.5-5.5,5.5v33.2c0,3,2.5,5.5,5.5,5.5h44.1c3,0,5.5-2.5,5.5-5.5v-33.2
			c0-3-2.5-5.5-5.5-5.5h-8.7l-5-5.5C590.9,108.9,574.2,108.9,574.2,108.9z M582.5,150.3c-7.6,0-13.8-6.2-13.8-13.8
			s6.2-13.8,13.8-13.8s13.8,6.2,13.8,13.8S590.1,150.3,582.5,150.3z"/>
	</g>
</g>
<g>
	<path class="st4" d="M1456.8,154.5l33.8,97.7h-28.5l-5.2-15.7h-30.6l-5.1,15.7h-28.4l33.5-97.7H1456.8z M1433.2,215.3h16.6
		l-8.4-25.1L1433.2,215.3"/>
</g>
</svg>
