<?xml version="1.0" encoding="utf-8"?>
<!-- Generator: Adobe Illustrator 19.0.0, SVG Export Plug-In . SVG Version: 6.00 Build 0)  -->
<svg version="1.1" id="Layer_1" xmlns="http://www.w3.org/2000/svg" xmlns:xlink="http://www.w3.org/1999/xlink" x="0px" y="0px"
	 viewBox="498 -18.5 1280 320" style="enable-background:new 498 -18.5 1280 320;" xml:space="preserve">
<style type="text/css">
	.st0{fill:#DBDBDB;}
	.st1{fill:#A6A8AB;}
	.st2{fill:#C4C4C4;}
	.st3{fill:none;stroke:#DBDBDB;stroke-width:2;stroke-miterlimit:10;}
	.st4{fill:#FFFFFF;}
	.st5{fill:#F68757;}
	.st6{fill:#E76BE4;}
	.st7{fill:#46CD46;}
	.st8{fill:url(#SVGID_1_);}
	.st9{fill:url(#SVGID_2_);}
	.st10{fill:url(#SVGID_3_);}
	.st11{fill:url(#SVGID_4_);}
	.st12{fill:#A7A9AC;}
	.st13{fill:none;stroke:#A0A0A0;stroke-width:2;stroke-miterlimit:10;}
</style>
<g id="Layer_2">
</g>
<polygon class="st0" points="1409.1,292.6 1408.9,194.8 1370.1,164.7 1343.5,164.7 1343.5,194.8 1328,194.8 1308.5,164.7 
	1282.8,164.7 1283,262.5 1321.8,292.6 1348.4,292.6 1348.4,265.4 1383.3,292.6 "/>
<path class="st0" d="M1520.3,291.8l-33.8-97.7l-38.8-30.1h-30.4l-33.5,97.7l38.8,30.1h28.4l5.1-15.7h15.6l20.3,15.7H1520.3
	L1520.3,291.8z"/>
<g>
	<path class="st1" d="M1448,163.7l33.8,97.7h-28.5l-5.2-15.7h-30.6l-5.1,15.7H1384l33.5-97.7C1417.5,163.7,1448,163.7,1448,163.7z
		 M1424.5,224.5h16.6l-8.4-25.1L1424.5,224.5"/>
</g>
<g>
	<polygon class="st1" points="1456.9,155 1490.7,252.8 1481.9,261.4 1448,163.7 	"/>
</g>
<g>
	<polygon class="st1" points="1449.9,215.8 1441,224.5 1432.8,199.4 1441.5,190.7 	"/>
</g>
<g>
	<polygon class="st1" points="1441.5,190.7 1433.3,215.8 1424.5,224.5 1432.8,199.4 	"/>
</g>
<g>
	<polygon class="st2" points="1462.2,252.8 1453.3,261.4 1448.2,245.7 1456.9,237 	"/>
</g>
<g>
	<polygon class="st1" points="1490.7,252.8 1481.9,261.4 1453.3,261.4 1462.2,252.8 	"/>
</g>
<g>
	<polygon class="st1" points="1456.9,237 1448.2,245.7 1417.5,245.7 1426.3,237 	"/>
</g>
<g>
	<polygon class="st2" points="1392.9,252.8 1384,261.4 1417.5,163.7 1426.3,155 	"/>
</g>
<g>
	<polygon class="st1" points="1421.2,252.8 1412.3,261.4 1384,261.4 1392.9,252.8 	"/>
</g>
<path class="st0" d="M1249.9,292.6l-0.2-97.5l-38.8-30.1h-26.6l0.1,24.9l-32.2-24.9h-26.6l0.2,97.5l38.8,30.1h26.6l-0.1-24.9
	l32.1,24.9H1249.9z"/>
<g>
	<path class="st0" d="M1727.5,95.1h-127.1v112l33.3,25.9c1.3,0.7,2.8,1.1,4.3,1.1h116.2c4.8,0,8.6-3.9,8.6-8.6v-98.4
		c0-3.1-1.7-5.9-4.3-7.5L1727.5,95.1z"/>
</g>
<polygon class="st0" points="820.5,86 820.5,64.8 781.7,34.7 704.2,34.7 704.3,52.8 704.2,52.8 704.2,55.9 729.7,75.7 729.8,132.2 
	768.6,162.2 795.2,162.2 795.1,86 "/>
<path class="st0" d="M897.3,141l-22.9-17.8h18.9v-21.3l-20.9-16.2h24.8V64.4l-38.8-30.1H798l0.2,97.7l38.8,30.1h60.4L897.3,141z"/>
<path class="st0" d="M1007.8,162.2L974,64.5l-38.8-30.1h-30.4l-33.5,97.7l38.8,30.1h28.4l5.1-15.7h15.5l20.3,15.7L1007.8,162.2
	L1007.8,162.2z"/>
<path class="st0" d="M1325.1,162.2l-33.8-97.7l-38.8-30.1h-30.4l-33.5,97.7l38.8,30.1h28.4l5.1-15.7h15.6l20.3,15.7L1325.1,162.2
	L1325.1,162.2z"/>
<path class="st0" d="M1214.3,162.2l-0.2-97.4l-38.8-30.1h-26.6l0.1,24.9l-32.1-24.9h-26.6l0.2,97.5l38.8,30.1h26.6l-0.1-24.9
	l32.1,24.9h26.6V162.2z"/>
<path class="st0" d="M1365.6,42.1c-6-4.9-14-7.4-23.9-7.4h-42.5l0.2,97.5l38.8,30.1h44.7c10.2,0,18.2-2.4,24-7
	c5.9-4.8,8.9-11.3,8.9-19.3c0-6.3-2.1-11.9-6.1-16.6c-1.6-1.8-3.4-3.4-5.4-4.7c-1.1-1-2.3-1.9-3.5-2.7l-0.1-0.1
	c8.5-4.4,12.9-11.3,12.8-20.6c0-7.7-3.1-14.1-9.2-19.1L1365.6,42.1z"/>
<polygon class="st0" points="1434.3,162.2 1489.3,162.2 1489.2,141 1460.9,119 1460.8,64.8 1422,34.7 1395.3,34.7 1395.6,132.2 "/>
<g>
	<g>
		<polygon class="st0" points="1272.5,292.6 1299.2,292.6 1298.9,195.1 1260.2,165 1233.5,165 1233.7,262.5 		"/>
	</g>
</g>
<g>
	<path class="st0" d="M640.3,95.1H513.2v112l33.3,25.9c1.3,0.7,2.8,1.1,4.3,1.1H667c4.8,0,8.6-3.9,8.6-8.6v-98.4
		c0-3.1-1.7-5.9-4.3-7.5L640.3,95.1z"/>
</g>
<path class="st0" d="M1032.6,151.4c9.1,7.7,20,11.6,32.6,11.6c10.7,0,20.4-2.9,28.7-8.6c8.4-5.7,14.3-13.8,17.6-23.9l0.8-2.6
	l-38.8-30.1h-27.2c0.6-1,1.4-2,2.2-2.9c2.1-2.3,4.6-4,7.4-5.1h13.4l11.9,8.7h31l-0.8-2.6c-3.3-10-9.1-17.9-17.2-23.6L1055,41.9
	c-8.4-5.7-18-8.6-28.7-8.6c-13.8,0-25.7,4.7-35.3,14.1s-14.4,21.4-14.4,35.7s4.9,26.4,14.6,35.7L1032.6,151.4z"/>
<path class="st0" d="M1068.2,281.8c9.1,7.7,20,11.6,32.6,11.6c10.7,0,20.4-2.9,28.7-8.6c8.4-5.7,14.3-13.8,17.6-23.9l0.8-2.6
	l-38.8-30.1h-27.2c0.6-1,1.4-2,2.2-2.9c2.1-2.3,4.6-4,7.4-5.1h13.4l11.9,8.7h31l-0.8-2.6c-3.3-10-9.1-17.9-17.2-23.6l-39.2-30.4
	c-8.4-5.7-18-8.6-28.7-8.6c-13.8,0-25.7,4.7-35.3,14.1c-9.6,9.4-14.4,21.4-14.4,35.7s4.9,26.4,14.6,35.7L1068.2,281.8z"/>
<polygon class="st0" points="1542,123.2 1560.9,123.2 1560.8,101.9 1540,85.8 1564.8,85.8 1564.7,64.5 1525.9,34.4 1465.6,34.4 
	1465.8,132.2 1504.6,162.2 1564.9,162.2 1564.9,141 "/>
<path class="st0" d="M932.5,292.6l-0.2-97.5L893.5,165h-29.3l-12.4,30.1h-25.9L813.4,165h-29.3l0.2,97.5l38.8,30.1h26.6v-14.3
	l18.4,14.3h19.5l4.4-10.8l13.9,10.8H932.5z"/>
<path class="st0" d="M1043.4,292.6l-33.8-97.7l-38.8-30.1h-30.4l-33.5,97.7l38.8,30.1h28.4l5.1-15.7h15.6l20.3,15.7H1043.4z"/>
<g>
	<g>
		<g>
			<path class="st3" d="M1482.4,266.4c84,0,234.1,39.7,234.1-32.5"/>
		</g>
		<g>
			<path class="st3" d="M1478.3,228.6c61.4,0,205.8,71,205.8,5.2"/>
		</g>
		<g>
			<path class="st3" d="M1482.4,190.4c63.8,0,169.5,94.2,169.5,43.5"/>
		</g>
		<g>
			<path class="st3" d="M908.9,147.2c-6.7,24.3,69.6-3.4,69.6,19.4"/>
		</g>
		<g>
			<path class="st3" d="M1128,147.2c0,17.3,36-1.9,36,19.2"/>
		</g>
		<g>
			<path class="st3" d="M1295.7,147.2c5.3,11.7,25.3,4.4,25.3,19.4"/>
		</g>
		<g>
			<path class="st3" d="M556.6,100.5c30.8-88.4,237.5-119.6,237.5-64.3"/>
		</g>
		<g>
			<path class="st3" d="M599.4,100.5c21-81.2,168.5-112,168.5-64.3"/>
		</g>
		<g>
			<path class="st3" d="M636.7,99.2c0-58.9,104.9-108,104.9-62.9"/>
		</g>
	</g>
</g>
<g>
	<polygon class="st1" points="1712.5,207.2 1600.4,207.2 1600.4,95.1 1615.5,80.1 1727.5,80.1 1727.5,192.2 	"/>
	<rect x="1615.5" y="80.1" class="st4" width="112" height="112"/>
	<polygon class="st2" points="1615.5,80.1 1600.4,95.1 1600.4,207.2 1615.5,192.2 	"/>
</g>
<path class="st5" d="M1696.4,198.3c-3.9,0-7.1,1.6-7.1,3v1v8.5v1c0,1.4,3.2,3,7.1,3s7.1-1.6,7.1-3v-1v-8.5v-1
	C1703.5,199.9,1700.3,198.3,1696.4,198.3z"/>
<path class="st5" d="M1300.9,147.5c-3.9,0-7.1,1.6-7.1,3v1v8.5v1c0,1.4,3.2,3,7.1,3s7.1-1.6,7.1-3v-1v-8.5v-1
	C1308.1,149.1,1304.9,147.5,1300.9,147.5z"/>
<path class="st6" d="M1664.1,198.3c-3.9,0-7.1,1.6-7.1,3v1v8.5v1c0,1.4,3.2,3,7.1,3s7.1-1.6,7.1-3v-1v-8.5v-1
	C1671.2,199.9,1668.1,198.3,1664.1,198.3z"/>
<path class="st6" d="M1143.9,147.4c-3.9,0-7.1,1.6-7.1,3v1v8.5v1c0,1.4,3.2,3,7.1,3s7.1-1.6,7.1-3v-1v-8.5v-1
	C1151,149,1147.8,147.4,1143.9,147.4z"/>
<path class="st7" d="M1631.8,198.3c-3.9,0-7.1,1.6-7.1,3v1v8.5v1c0,1.4,3.2,3,7.1,3s7.1-1.6,7.1-3v-1v-8.5v-1
	C1639,199.9,1635.8,198.3,1631.8,198.3z"/>
<path class="st5" d="M774.1,17.2c-3.9,0-7.1,1.6-7.1,3v1v8.5v1c0,1.4,3.2,3,7.1,3s7.1-1.6,7.1-3v-1v-8.5v-1
	C781.2,18.8,778,17.2,774.1,17.2z"/>
<path class="st6" d="M747.8,17.2c-3.9,0-7.1,1.6-7.1,3v1v8.5v1c0,1.4,3.2,3,7.1,3c3.9,0,7.1-1.6,7.1-3v-1v-8.5v-1
	C754.9,18.8,751.7,17.2,747.8,17.2z"/>
<path class="st7" d="M721.5,17.2c-3.9,0-7.1,1.6-7.1,3v1v8.5v1c0,1.4,3.2,3,7.1,3c3.9,0,7.1-1.6,7.1-3v-1v-8.5v-1
	C728.7,18.8,725.5,17.2,721.5,17.2z"/>
<path class="st7" d="M958.4,147.5c-3.9,0-7.1,1.6-7.1,3v1v8.5v1c0,1.4,3.2,3,7.1,3s7.1-1.6,7.1-3v-1v-8.5v-1
	C965.5,149.1,962.3,147.5,958.4,147.5z"/>
<g>
	<polygon class="st1" points="781.9,34.4 782,55.6 756.5,55.6 756.7,131.8 730,131.8 729.9,55.6 704.5,55.6 704.4,34.4 	"/>
</g>
<g>
	<polygon class="st1" points="790.7,25.7 790.8,46.9 782,55.6 781.9,34.4 	"/>
</g>
<g>
	<polygon class="st1" points="790.8,46.9 782,55.6 756.5,55.6 765.3,46.9 	"/>
</g>
<g>
	<polygon class="st1" points="713.2,25.7 790.7,25.7 781.9,34.4 704.4,34.4 	"/>
</g>
<g>
	<polygon class="st1" points="738.7,46.9 729.9,55.6 704.5,55.6 713.3,46.9 	"/>
</g>
<g>
	<polygon class="st2" points="713.3,46.9 704.5,55.6 704.4,34.4 713.2,25.7 	"/>
</g>
<g>
	<polygon class="st1" points="765.3,46.9 765.5,123.2 756.7,131.8 756.5,55.6 	"/>
</g>
<g>
	<polygon class="st1" points="765.5,123.2 756.7,131.8 730,131.8 738.8,123.2 	"/>
</g>
<g>
	<polygon class="st2" points="738.8,123.2 730,131.8 729.9,55.6 738.7,46.9 	"/>
</g>
<g>
	<polygon class="st1" points="858.6,34.1 858.6,55.4 824.9,55.4 824.9,71.5 854.7,71.5 854.7,92.8 825,92.8 825,110.6 858.7,110.6 
		858.8,131.8 798.4,131.8 798.2,34.1 	"/>
</g>
<g>
	<polygon class="st1" points="867.4,25.4 867.4,46.7 858.6,55.4 858.6,34.1 	"/>
</g>
<g>
	<polygon class="st1" points="867.4,46.7 858.6,55.4 824.9,55.4 833.7,46.7 	"/>
</g>
<g>
	<polygon class="st1" points="807,25.4 867.4,25.4 858.6,34.1 798.2,34.1 	"/>
</g>
<g>
	<polygon class="st1" points="863.5,62.9 863.5,84.1 854.7,92.8 854.7,71.5 	"/>
</g>
<g>
	<polygon class="st1" points="833.7,46.7 833.7,62.9 824.9,71.5 824.9,55.4 	"/>
</g>
<g>
	<polygon class="st1" points="833.7,62.9 863.5,62.9 854.7,71.5 824.9,71.5 	"/>
</g>
<g>
	<polygon class="st1" points="863.5,84.1 854.7,92.8 825,92.8 833.8,84.1 	"/>
</g>
<g>
	<polygon class="st1" points="867.5,101.9 867.6,123.2 858.8,131.8 858.7,110.6 	"/>
</g>
<g>
	<polygon class="st1" points="833.8,101.9 867.5,101.9 858.7,110.6 825,110.6 	"/>
</g>
<g>
	<polygon class="st1" points="833.8,84.1 833.8,101.9 825,110.6 825,92.8 	"/>
</g>
<g>
	<polygon class="st1" points="867.6,123.2 858.8,131.8 798.4,131.8 807.2,123.2 	"/>
</g>
<g>
	<polygon class="st2" points="807.2,123.2 798.4,131.8 798.2,34.1 807,25.4 	"/>
</g>
<g>
	<path class="st1" d="M1026.4,33c10.7,0,20.4,2.9,28.7,8.6c8.4,5.7,14.3,13.8,17.7,23.9l0.8,2.6h-31L1042,67
		c-3.2-6.2-8.2-9.2-15.3-9.2c-7.3,0-12.8,2.2-16.9,6.7c-4.1,4.5-6.2,10.6-6.2,18.3c0,7.6,2.1,13.8,6.2,18.3c4.1,4.5,9.7,6.7,17,6.7
		c7.1,0,12-3,15.2-9.2l0.5-1.1h31l-0.8,2.6c-3.3,10.1-9.2,18.2-17.6,23.9c-8.3,5.7-18,8.6-28.7,8.6c-13.8,0-25.7-4.7-35.3-14.1
		s-14.5-21.4-14.6-35.7c0-14.3,4.8-26.4,14.4-35.7C1000.7,37.8,1012.6,33,1026.4,33z"/>
</g>
<g>
	<polygon class="st1" points="1081.6,56.9 1082.5,59.5 1073.7,68.1 1072.8,65.6 	"/>
</g>
<g>
	<path class="st1" d="M1035.2,24.3c10.7,0,20.4,2.9,28.7,8.6c8.4,5.7,14.3,13.8,17.7,23.9l-8.8,8.7c-3.3-10.1-9.3-18.2-17.7-23.9
		s-18-8.6-28.7-8.6L1035.2,24.3z"/>
</g>
<g>
	<polygon class="st1" points="1082.5,59.5 1073.7,68.1 1042.7,68.1 1051.5,59.5 	"/>
</g>
<g>
	<polygon class="st1" points="1082.6,88.8 1081.7,91.4 1072.9,100.1 1073.8,97.5 	"/>
</g>
<linearGradient id="SVGID_1_" gradientUnits="userSpaceOnUse" x1="1019.8241" y1="73.9313" x2="1043.3027" y2="50.4526" gradientTransform="matrix(1 0 0 1 0 -1.08)">
	<stop  offset="0" style="stop-color:#BBBDBF"/>
	<stop  offset="1" style="stop-color:#A6A8AB"/>
</linearGradient>
<path class="st8" d="M1050.9,58.4c-3.2-6.2-8.2-9.2-15.3-9.2c-6.9,0-12.2,1.9-16.2,5.9l-8.8,8.7c4-4,9.3-5.9,16.2-5.9
	c7.1,0,12,3,15.3,9.2l0.6,1.1l8.8-8.7L1050.9,58.4z"/>
<g>
	<polygon class="st1" points="1051.6,88.8 1082.6,88.8 1073.8,97.5 1042.8,97.5 	"/>
</g>
<g>
	<polygon class="st1" points="1051,89.9 1042.2,98.6 1042.8,97.5 1051.6,88.8 	"/>
</g>
<g>
	<path class="st1" d="M999.9,38.4c9.6-9.3,21.4-14.1,35.3-14.1l-8.8,8.7c-13.8,0-25.7,4.7-35.3,14.1C993.8,44.5,997.3,41,999.9,38.4
		z"/>
</g>
<g>
	<path class="st1" d="M1061.5,118.9c5.2-5.1,9-11.4,11.4-18.8l8.8-8.7c-2.4,7.4-6.2,13.7-11.4,18.8
		C1067.7,112.9,1064.2,116.3,1061.5,118.9z"/>
</g>
<g>
	<path class="st1" d="M1047.6,94.7l-8.8,8.7c1.3-1.3,2.5-2.9,3.4-4.8l8.8-8.7C1050,91.8,1048.9,93.4,1047.6,94.7z"/>
</g>
<g>
	<path class="st1" d="M1019.5,55.1c-0.3,0.3-0.5,0.5-0.8,0.8c-4.1,4.5-6.2,10.6-6.2,18.3c0,7.6,2.1,13.8,6.2,18.3
		c4.1,4.5,9.7,6.7,17,6.7c4.9,0,8.8-1.4,11.8-4.4l-8.8,8.7c-3,3-6.9,4.4-11.8,4.4c-7.3,0-12.8-2.2-17-6.7
		c-4.1-4.5-6.2-10.6-6.2-18.3c0-7.6,2.1-13.8,6.2-18.3c0.2-0.3,0.5-0.5,0.8-0.8C1013.3,61.2,1016.9,57.7,1019.5,55.1z"/>
</g>
<g>
	
		<linearGradient id="SVGID_2_" gradientUnits="userSpaceOnUse" x1="991.0707" y1="119.4302" x2="1035.4229" y2="75.0781" gradientTransform="matrix(1 0 0 1 0 -1.08)">
		<stop  offset="0" style="stop-color:#BBBDBF"/>
		<stop  offset="1" style="stop-color:#A6A8AB"/>
	</linearGradient>
	<path class="st9" d="M1070.3,110.3l-8.8,8.7c-1.9,1.9-3.9,3.6-6.2,5.1c-8.3,5.7-18,8.6-28.7,8.6c-13.8,0-25.7-4.7-35.3-14.1
		s-14.5-21.4-14.6-35.7c0-14.3,4.8-26.4,14.4-35.7l8.8-8.7c-9.6,9.4-14.4,21.4-14.4,35.7s4.9,26.4,14.6,35.7
		c9.6,9.4,21.5,14.1,35.3,14.1c10.7,0,20.4-2.9,28.7-8.6C1066.4,113.8,1068.4,112.1,1070.3,110.3z"/>
</g>
<g>
	<path class="st1" d="M935.4,34.1l33.8,97.7h-28.5l-5.2-15.7h-30.6l-5.1,15.7h-28.4l33.5-97.7C904.9,34.1,935.4,34.1,935.4,34.1z
		 M911.9,94.9h16.6l-8.4-25.1L911.9,94.9"/>
</g>
<g>
	<polygon class="st1" points="913.8,25.4 944.2,25.4 935.4,34.1 905,34.1 	"/>
</g>
<g>
	<polygon class="st1" points="944.2,25.4 978,123.2 969.3,131.8 935.4,34.1 	"/>
</g>
<g>
	<polygon class="st1" points="937.3,86.2 928.5,94.9 920.1,69.8 928.9,61.1 	"/>
</g>
<g>
	<polygon class="st1" points="928.9,61.1 920.7,86.2 911.9,94.9 920.1,69.8 	"/>
</g>
<g>
	<polygon class="st1" points="920.7,86.2 937.3,86.2 928.5,94.9 911.9,94.9 	"/>
</g>
<g>
	<polygon class="st2" points="949.6,123.2 940.8,131.8 935.6,116.1 944.4,107.4 	"/>
</g>
<g>
	<polygon class="st1" points="978,123.2 969.3,131.8 940.8,131.8 949.6,123.2 	"/>
</g>
<g>
	<polygon class="st1" points="944.4,107.4 935.6,116.1 904.9,116.1 913.7,107.4 	"/>
</g>
<g>
	<polygon class="st1" points="913.7,107.4 908.6,123.2 899.8,131.8 904.9,116.1 	"/>
</g>
<g>
	<polygon class="st2" points="880.2,123.2 871.4,131.8 905,34.1 913.8,25.4 	"/>
</g>
<g>
	<polygon class="st1" points="908.6,123.2 899.8,131.8 871.4,131.8 880.2,123.2 	"/>
</g>
<g>
	<polygon class="st1" points="1175.5,34.4 1175.7,131.8 1149.1,131.8 1149,93.1 1117,93.1 1117,131.8 1090.4,131.8 1090.2,34.4 
		1116.8,34.4 1116.9,71.8 1149,71.8 1148.9,34.4 	"/>
</g>
<g>
	<polygon class="st1" points="1157.7,25.7 1184.3,25.7 1175.5,34.4 1148.9,34.4 	"/>
</g>
<g>
	<polygon class="st2" points="1157.7,63.1 1149,71.8 1148.9,34.4 1157.7,25.7 	"/>
</g>
<g>
	<polygon class="st1" points="1099,25.7 1125.6,25.7 1116.8,34.4 1090.2,34.4 	"/>
</g>
<g>
	<polygon class="st1" points="1125.7,63.1 1157.7,63.1 1149,71.8 1116.9,71.8 	"/>
</g>
<g>
	<polygon class="st1" points="1125.6,25.7 1125.7,63.1 1116.9,71.8 1116.8,34.4 	"/>
</g>
<g>
	<polygon class="st1" points="1184.3,25.7 1184.5,123.2 1175.7,131.8 1175.5,34.4 	"/>
</g>
<g>
	<polygon class="st1" points="1157.8,84.4 1149,93.1 1117,93.1 1125.7,84.4 	"/>
</g>
<g>
	<polygon class="st1" points="1184.5,123.2 1175.7,131.8 1149.1,131.8 1157.9,123.2 	"/>
</g>
<g>
	<polygon class="st2" points="1157.9,123.2 1149.1,131.8 1149,93.1 1157.8,84.4 	"/>
</g>
<g>
	<polygon class="st1" points="1125.7,84.4 1125.8,123.2 1117,131.8 1117,93.1 	"/>
</g>
<g>
	<polygon class="st1" points="1125.8,123.2 1117,131.8 1090.4,131.8 1099.2,123.2 	"/>
</g>
<g>
	<polygon class="st2" points="1099.2,123.2 1090.4,131.8 1090.2,34.4 1099,25.7 	"/>
</g>
<g>
	<path class="st1" d="M1252.8,34.1l33.8,97.7h-28.5l-5.2-15.7h-30.6l-5.1,15.7h-28.4l33.5-97.7C1222.3,34.1,1252.8,34.1,1252.8,34.1
		z M1229.3,94.9h16.6l-8.4-25.1L1229.3,94.9"/>
</g>
<g>
	<polygon class="st1" points="1231.1,25.4 1261.6,25.4 1252.8,34.1 1222.3,34.1 	"/>
</g>
<g>
	<polygon class="st1" points="1261.6,25.4 1295.4,123.2 1286.6,131.8 1252.8,34.1 	"/>
</g>
<g>
	<polygon class="st1" points="1254.6,86.2 1245.8,94.9 1237.5,69.8 1246.3,61.1 	"/>
</g>
<g>
	<polygon class="st1" points="1246.3,61.1 1238,86.2 1229.3,94.9 1237.5,69.8 	"/>
</g>
<g>
	<polygon class="st1" points="1238,86.2 1254.6,86.2 1245.8,94.9 1229.3,94.9 	"/>
</g>
<g>
	<polygon class="st2" points="1266.9,123.2 1258.1,131.8 1252.9,116.1 1261.7,107.4 	"/>
</g>
<g>
	<polygon class="st1" points="1295.4,123.2 1286.6,131.8 1258.1,131.8 1266.9,123.2 	"/>
</g>
<g>
	<polygon class="st1" points="1261.7,107.4 1252.9,116.1 1222.3,116.1 1231.1,107.4 	"/>
</g>
<g>
	<polygon class="st1" points="1231.1,107.4 1225.9,123.2 1217.1,131.8 1222.3,116.1 	"/>
</g>
<g>
	<polygon class="st2" points="1197.6,123.2 1188.8,131.8 1222.3,34.1 1231.1,25.4 	"/>
</g>
<g>
	<polygon class="st1" points="1225.9,123.2 1217.1,131.8 1188.8,131.8 1197.6,123.2 	"/>
</g>
<g>
	<path class="st1" d="M1371.1,88.9c4,4.7,6.1,10.3,6.1,16.6c0,8-3,14.5-8.9,19.3c-5.8,4.7-13.8,7-24,7h-44.7l-0.2-97.5h42.5
		c9.9,0,17.9,2.5,23.9,7.4c6.1,5,9.2,11.4,9.2,19.1c0,9.6-4.6,16.7-13.9,21.1C1365.1,83.4,1368.4,85.7,1371.1,88.9z M1347.8,108.3
		c1.6-1.5,2.4-3.5,2.4-6.3s-0.8-4.9-2.4-6.5s-3.6-2.4-6.2-2.4h-15.4v17.4h15.2C1344,110.6,1346.1,109.8,1347.8,108.3 M1326.1,55.6
		v16.3h13c2.8,0,5-0.7,6.6-2.1c1.5-1.3,2.3-3.3,2.3-6c0-2.8-0.8-4.8-2.3-6.1c-1.6-1.4-3.8-2.1-6.6-2.1H1326.1"/>
</g>
<g>
	<path class="st1" d="M1368.7,76.7c4.2-4.1,6.3-9.4,6.3-15.9c0-7.7-3.1-14.1-9.2-19.1c-6-4.9-14-7.4-23.9-7.4l8.8-8.7
		c9.9,0,17.9,2.5,23.9,7.4c6.1,5,9.2,11.4,9.2,19.1c0,6.5-2.1,11.8-6.3,15.9C1374.9,70.7,1371.4,74.1,1368.7,76.7z"/>
</g>
<g>
	<path class="st1" d="M1377.5,68.1l-8.8,8.7c-2,2-4.6,3.7-7.6,5.2l8.8-8.7C1373,71.8,1375.5,70.1,1377.5,68.1z"/>
</g>
<g>
	<path class="st1" d="M1369.9,73.2c3.9,1.5,7.3,3.8,10,7l-8.8,8.7c-2.7-3.2-6.1-5.5-10-7C1363.8,79.3,1367.3,75.8,1369.9,73.2z"/>
</g>
<g>
	<path class="st1" d="M1354.8,60.9l-8.8,8.7c1.3-1.3,2-3.2,1.9-5.7c0-2.8-0.8-4.8-2.3-6.1c-1.6-1.4-3.8-2.1-6.6-2.1l8.8-8.7
		c2.8,0,5,0.7,6.6,2.1c1.6,1.3,2.3,3.4,2.3,6.1C1356.8,57.7,1356.1,59.6,1354.8,60.9z"/>
</g>
<g>
	<polygon class="st1" points="1347.8,46.9 1339,55.6 1326.1,55.6 1334.9,46.9 	"/>
</g>
<g>
	<path class="st1" d="M1346,69.6c-0.1,0.1-0.2,0.2-0.3,0.3c-1.6,1.4-3.8,2.1-6.6,2.1l8.8-8.7c2.8,0,5-0.7,6.6-2.1
		c0.1-0.1,0.2-0.2,0.3-0.3C1352.2,63.5,1348.7,67,1346,69.6z"/>
</g>
<g>
	<polygon class="st1" points="1308.2,25.7 1350.7,25.7 1341.9,34.4 1299.4,34.4 	"/>
</g>
<g>
	<polygon class="st1" points="1334.9,46.9 1335,63.3 1326.2,71.9 1326.1,55.6 	"/>
</g>
<g>
	<polygon class="st1" points="1335,63.3 1347.9,63.3 1339.1,71.9 1326.2,71.9 	"/>
</g>
<g>
	<path class="st1" d="M1370.3,123.1c4.6-4.6,7-10.5,7-17.6c0-6.3-2.1-11.9-6.1-16.6l8.8-8.7c4,4.7,6.1,10.3,6.1,16.6
		c0,7.1-2.3,13-7,17.6C1376.4,117,1372.9,120.5,1370.3,123.1z"/>
</g>
<g>
	<path class="st1" d="M1356.8,99.4l-8.8,8.7c1.5-1.5,2.2-3.5,2.2-6.1c0-2.8-0.8-4.9-2.4-6.5s-3.6-2.4-6.2-2.4l8.8-8.7
		c2.6,0,4.6,0.8,6.2,2.4s2.4,3.7,2.4,6.5C1359,96,1358.3,98,1356.8,99.4z"/>
</g>
<g>
	<path class="st1" d="M1348,108.1c-0.1,0.1-0.1,0.1-0.2,0.2l8.8-8.7c0.1-0.1,0.1-0.1,0.2-0.2C1354.1,102,1350.6,105.5,1348,108.1z"
		/>
</g>
<g>
	<polygon class="st1" points="1350.4,84.5 1341.6,93.2 1326.2,93.2 1335,84.5 	"/>
</g>
<g>
	<path class="st1" d="M1350.2,101.9c2.6,0,4.7-0.7,6.4-2.3l-8.8,8.7c-1.7,1.5-3.8,2.3-6.4,2.3L1350.2,101.9z"/>
</g>
<g>
	<polygon class="st1" points="1335,84.5 1335,101.9 1326.3,110.6 1326.2,93.2 	"/>
</g>
<g>
	<polygon class="st1" points="1335,101.9 1350.2,101.9 1341.4,110.6 1326.3,110.6 	"/>
</g>
<g>
	<path class="st1" d="M1379.1,114.4l-8.8,8.7c-0.6,0.6-1.2,1.2-1.9,1.7c-5.8,4.7-13.8,7-24,7l8.8-8.7c10.2,0,18.2-2.4,24-7
		C1377.8,115.6,1378.5,115,1379.1,114.4z"/>
</g>
<g>
	<polygon class="st1" points="1353.2,123.2 1344.4,131.8 1299.7,131.8 1308.5,123.2 	"/>
</g>
<g>
	<polygon class="st2" points="1308.5,123.2 1299.7,131.8 1299.4,34.4 1308.2,25.7 	"/>
</g>
<g>
	<polygon class="st1" points="1422.2,34.4 1422.4,110.6 1450.7,110.6 1450.7,131.8 1395.8,131.8 1395.6,34.4 	"/>
</g>
<g>
	<polygon class="st1" points="1404.4,25.7 1431,25.7 1422.2,34.4 1395.6,34.4 	"/>
</g>
<g>
	<polygon class="st1" points="1459.5,101.9 1459.5,123.2 1450.7,131.8 1450.7,110.6 	"/>
</g>
<g>
	<polygon class="st1" points="1431,25.7 1431.2,101.9 1422.4,110.6 1422.2,34.4 	"/>
</g>
<g>
	<polygon class="st1" points="1431.2,101.9 1459.5,101.9 1450.7,110.6 1422.4,110.6 	"/>
</g>
<g>
	<polygon class="st1" points="1459.5,123.2 1450.7,131.8 1395.8,131.8 1404.6,123.2 	"/>
</g>
<g>
	<polygon class="st2" points="1404.6,123.2 1395.8,131.8 1395.6,34.4 1404.4,25.7 	"/>
</g>
<g>
	<polygon class="st1" points="1526.2,34.1 1526.2,55.4 1492.5,55.4 1492.5,71.5 1522.3,71.5 1522.3,92.8 1492.6,92.8 1492.6,110.6 
		1526.4,110.6 1526.4,131.8 1466,131.8 1465.8,34.1 	"/>
</g>
<g>
	<polygon class="st1" points="1535,25.4 1535,46.7 1526.2,55.4 1526.2,34.1 	"/>
</g>
<g>
	<polygon class="st1" points="1535,46.7 1526.2,55.4 1492.5,55.4 1501.3,46.7 	"/>
</g>
<g>
	<polygon class="st1" points="1474.6,25.4 1535,25.4 1526.2,34.1 1465.8,34.1 	"/>
</g>
<g>
	<polygon class="st1" points="1531.1,62.9 1531.1,84.1 1522.3,92.8 1522.3,71.5 	"/>
</g>
<g>
	<polygon class="st1" points="1501.3,46.7 1501.3,62.9 1492.5,71.5 1492.5,55.4 	"/>
</g>
<g>
	<polygon class="st1" points="1501.3,62.9 1531.1,62.9 1522.3,71.5 1492.5,71.5 	"/>
</g>
<g>
	<polygon class="st1" points="1531.1,84.1 1522.3,92.8 1492.6,92.8 1501.4,84.1 	"/>
</g>
<g>
	<polygon class="st1" points="1535.2,101.9 1535.2,123.2 1526.4,131.8 1526.4,110.6 	"/>
</g>
<g>
	<polygon class="st1" points="1501.4,101.9 1535.2,101.9 1526.4,110.6 1492.6,110.6 	"/>
</g>
<g>
	<polygon class="st1" points="1501.4,84.1 1501.4,101.9 1492.6,110.6 1492.6,92.8 	"/>
</g>
<g>
	<polygon class="st1" points="1535.2,123.2 1526.4,131.8 1466,131.8 1474.8,123.2 	"/>
</g>
<g>
	<polygon class="st2" points="1474.8,123.2 1466,131.8 1465.8,34.1 1474.6,25.4 	"/>
</g>
<g>
	<polygon class="st1" points="876.1,253.5 867.4,262.2 867.3,217.4 876,208.8 	"/>
</g>
<g>
	<polygon class="st2" points="893.8,164.7 894,262.2 867.4,262.2 867.3,217.4 849,262.2 829.5,262.2 811,217.4 811.1,262.2 
		784.5,262.2 784.3,164.7 813.6,164.7 839.2,226 864.5,164.7 	"/>
</g>
<g>
	<polygon class="st1" points="873.3,156 902.6,156 893.8,164.7 864.5,164.7 	"/>
</g>
<g>
	<polygon class="st1" points="902.6,156 902.8,253.5 894,262.2 893.8,164.7 	"/>
</g>
<g>
	<polygon class="st1" points="793.1,156 822.4,156 813.6,164.7 784.3,164.7 	"/>
</g>
<g>
	<polygon class="st2" points="848,217.3 839.2,226 864.5,164.7 873.3,156 	"/>
</g>
<g>
	<polygon class="st1" points="822.4,156 848,217.3 839.2,226 813.6,164.7 	"/>
</g>
<g>
	<polygon class="st1" points="902.8,253.5 894,262.2 867.4,262.2 876.1,253.5 	"/>
</g>
<g>
	<polygon class="st1" points="876,208.8 857.8,253.5 849,262.2 867.3,217.4 	"/>
</g>
<g>
	<polygon class="st1" points="857.8,253.5 849,262.2 829.5,262.2 838.3,253.5 	"/>
</g>
<g>
	<polygon class="st2" points="838.3,253.5 829.5,262.2 811,217.4 819.8,208.8 	"/>
</g>
<g>
	<polygon class="st1" points="819.8,208.8 819.9,253.5 811.1,262.2 811,217.4 	"/>
</g>
<g>
	<polygon class="st2" points="793.3,253.5 784.5,262.2 784.3,164.7 793.1,156 	"/>
</g>
<g>
	<polygon class="st1" points="819.9,253.5 811.1,262.2 784.5,262.2 793.3,253.5 	"/>
</g>
<g>
	<path class="st1" d="M1062,163.4c10.7,0,20.4,2.9,28.7,8.6c8.4,5.7,14.3,13.8,17.7,23.9l0.8,2.6h-31l-0.6-1.1
		c-3.2-6.2-8.2-9.2-15.3-9.2c-7.3,0-12.8,2.2-16.9,6.7s-6.2,10.6-6.2,18.3c0,7.6,2.1,13.8,6.2,18.3s9.7,6.7,17,6.7
		c7.1,0,12-3,15.2-9.2l0.5-1.1h31l-0.8,2.6c-3.3,10.1-9.2,18.2-17.6,23.9c-8.3,5.7-18,8.6-28.7,8.6c-13.8,0-25.7-4.7-35.3-14.1
		c-9.6-9.4-14.5-21.4-14.6-35.7c0-14.3,4.8-26.4,14.4-35.7C1036.3,168.1,1048.2,163.4,1062,163.4z"/>
</g>
<g>
	<polygon class="st1" points="1117.3,187.2 1118.1,189.8 1109.3,198.5 1108.5,195.9 	"/>
</g>
<g>
	<path class="st1" d="M1070.8,154.7c10.7,0,20.4,2.9,28.7,8.6c8.4,5.7,14.3,13.8,17.7,23.9l-8.8,8.7c-3.3-10.1-9.3-18.2-17.7-23.9
		c-8.4-5.7-18-8.6-28.7-8.6L1070.8,154.7z"/>
</g>
<g>
	<polygon class="st1" points="1118.1,189.8 1109.3,198.5 1078.3,198.5 1087.1,189.8 	"/>
</g>
<g>
	<polygon class="st1" points="1118.2,219.2 1117.3,221.8 1108.5,230.4 1109.4,227.9 	"/>
</g>
<linearGradient id="SVGID_3_" gradientUnits="userSpaceOnUse" x1="1055.4211" y1="204.2341" x2="1078.8878" y2="180.7675" gradientTransform="matrix(1 0 0 1 0 -1.08)">
	<stop  offset="0" style="stop-color:#BBBDBF"/>
	<stop  offset="1" style="stop-color:#A6A8AB"/>
</linearGradient>
<path class="st10" d="M1086.5,188.7c-3.2-6.2-8.2-9.2-15.3-9.2c-6.8,0-12.1,1.9-16.2,5.9l-8.8,8.7c4-4,9.3-5.9,16.2-5.9
	c7.1,0,12,3,15.3,9.2l0.6,1.1l8.8-8.7L1086.5,188.7z"/>
<g>
	<polygon class="st1" points="1087.2,219.2 1118.2,219.2 1109.4,227.9 1078.4,227.9 	"/>
</g>
<g>
	<polygon class="st1" points="1086.6,220.2 1077.8,228.9 1078.4,227.9 1087.2,219.2 	"/>
</g>
<g>
	<path class="st1" d="M1035.6,168.8c9.6-9.3,21.4-14.1,35.3-14.1l-8.8,8.7c-13.8,0-25.7,4.7-35.3,14.1
		C1029.4,174.9,1032.9,171.4,1035.6,168.8z"/>
</g>
<g>
	<path class="st1" d="M1097.1,249.3c5.2-5.1,9-11.4,11.4-18.8l8.8-8.7c-2.4,7.4-6.2,13.7-11.4,18.8
		C1103.3,243.2,1099.8,246.7,1097.1,249.3z"/>
</g>
<g>
	<path class="st1" d="M1083.2,225l-8.8,8.7c1.3-1.3,2.5-2.9,3.4-4.8l8.8-8.7C1085.6,222.1,1084.5,223.7,1083.2,225z"/>
</g>
<g>
	<path class="st1" d="M1055.1,185.4c-0.3,0.3-0.5,0.5-0.8,0.8c-4.1,4.5-6.2,10.6-6.2,18.3c0,7.6,2.1,13.8,6.2,18.3s9.7,6.7,17,6.7
		c4.9,0,8.8-1.4,11.8-4.4l-8.8,8.7c-3,3-6.9,4.4-11.8,4.4c-7.3,0-12.8-2.2-17-6.7c-4.1-4.5-6.2-10.6-6.2-18.3
		c0-7.6,2.1-13.8,6.2-18.3c0.2-0.3,0.5-0.5,0.8-0.8C1049,191.5,1052.5,188,1055.1,185.4z"/>
</g>
<g>
	
		<linearGradient id="SVGID_4_" gradientUnits="userSpaceOnUse" x1="1026.6746" y1="249.7339" x2="1071.0266" y2="205.3819" gradientTransform="matrix(1 0 0 1 0 -1.08)">
		<stop  offset="0" style="stop-color:#BBBDBF"/>
		<stop  offset="1" style="stop-color:#A6A8AB"/>
	</linearGradient>
	<path class="st11" d="M1105.9,240.6l-8.8,8.7c-1.9,1.9-3.9,3.6-6.2,5.1c-8.3,5.7-18,8.6-28.7,8.6c-13.8,0-25.7-4.7-35.3-14.1
		c-9.6-9.4-14.5-21.4-14.6-35.7c0-14.3,4.8-26.4,14.4-35.7l8.8-8.7c-9.6,9.4-14.4,21.4-14.4,35.7s4.9,26.4,14.6,35.7
		c9.6,9.3,21.5,14.1,35.3,14.1c10.7,0,20.4-2.9,28.7-8.6C1102,244.2,1104.1,242.5,1105.9,240.6z"/>
</g>
<g>
	<path class="st1" d="M971,164.4l33.8,97.7h-28.5l-5.2-15.7h-30.6l-5.1,15.7H907l33.5-97.7L971,164.4L971,164.4z M947.5,225.2h16.6
		l-8.4-25.1L947.5,225.2"/>
</g>
<g>
	<polygon class="st1" points="949.4,155.8 979.8,155.8 971,164.4 940.6,164.4 	"/>
</g>
<g>
	<polygon class="st1" points="979.8,155.8 1013.7,253.5 1004.9,262.2 971,164.4 	"/>
</g>
<g>
	<polygon class="st1" points="972.9,216.5 964.1,225.2 955.8,200.1 964.6,191.4 	"/>
</g>
<g>
	<polygon class="st1" points="964.6,191.4 956.3,216.5 947.5,225.2 955.8,200.1 	"/>
</g>
<g>
	<polygon class="st1" points="956.3,216.5 972.9,216.5 964.1,225.2 947.5,225.2 	"/>
</g>
<g>
	<polygon class="st2" points="985.2,253.5 976.4,262.2 971.2,246.5 980,237.8 	"/>
</g>
<g>
	<polygon class="st1" points="1013.7,253.5 1004.9,262.2 976.4,262.2 985.2,253.5 	"/>
</g>
<g>
	<polygon class="st1" points="980,237.8 971.2,246.5 940.6,246.5 949.3,237.8 	"/>
</g>
<g>
	<polygon class="st1" points="949.3,237.8 944.2,253.5 935.4,262.2 940.6,246.5 	"/>
</g>
<g>
	<polygon class="st2" points="915.8,253.5 907,262.2 940.6,164.4 949.4,155.8 	"/>
</g>
<g>
	<polygon class="st1" points="944.2,253.5 935.4,262.2 907,262.2 915.8,253.5 	"/>
</g>
<g>
	<polygon class="st1" points="1211.1,164.7 1211.3,262.2 1184.7,262.2 1184.6,223.4 1152.6,223.4 1152.7,262.2 1126,262.2 
		1125.8,164.7 1152.4,164.7 1152.5,202.1 1184.6,202.1 1184.5,164.7 	"/>
</g>
<g>
	<polygon class="st1" points="1193.3,156 1219.9,156 1211.1,164.7 1184.5,164.7 	"/>
</g>
<g>
	<polygon class="st2" points="1193.4,193.5 1184.6,202.1 1184.5,164.7 1193.3,156 	"/>
</g>
<g>
	<polygon class="st1" points="1134.6,156 1161.2,156 1152.4,164.7 1125.8,164.7 	"/>
</g>
<g>
	<polygon class="st1" points="1161.3,193.5 1193.4,193.5 1184.6,202.1 1152.5,202.1 	"/>
</g>
<g>
	<polygon class="st1" points="1161.2,156 1161.3,193.5 1152.5,202.1 1152.4,164.7 	"/>
</g>
<g>
	<polygon class="st1" points="1219.9,156 1220.1,253.5 1211.3,262.2 1211.1,164.7 	"/>
</g>
<g>
	<polygon class="st1" points="1193.4,214.7 1184.6,223.4 1152.6,223.4 1161.4,214.7 	"/>
</g>
<g>
	<polygon class="st1" points="1220.1,253.5 1211.3,262.2 1184.7,262.2 1193.5,253.5 	"/>
</g>
<g>
	<polygon class="st2" points="1193.5,253.5 1184.7,262.2 1184.6,223.4 1193.4,214.7 	"/>
</g>
<g>
	<polygon class="st1" points="1161.4,214.7 1161.4,253.5 1152.7,262.2 1152.6,223.4 	"/>
</g>
<g>
	<polygon class="st1" points="1161.4,253.5 1152.7,262.2 1126,262.2 1134.8,253.5 	"/>
</g>
<g>
	<polygon class="st2" points="1134.8,253.5 1126,262.2 1125.8,164.7 1134.6,156 	"/>
</g>
<g>
	<polygon class="st1" points="1260.4,164.7 1260.6,262.2 1234,262.2 1233.7,164.7 	"/>
</g>
<g>
	<polygon class="st1" points="1242.5,156 1269.2,156 1260.4,164.7 1233.7,164.7 	"/>
</g>
<g>
	<polygon class="st1" points="1269.2,156 1269.4,253.5 1260.6,262.2 1260.4,164.7 	"/>
</g>
<g>
	<polygon class="st1" points="1269.4,253.5 1260.6,262.2 1234,262.2 1242.8,253.5 	"/>
</g>
<g>
	<polygon class="st2" points="1242.8,253.5 1234,262.2 1233.7,164.7 1242.5,156 	"/>
</g>
<g>
	<polygon class="st1" points="1370.3,164.4 1370.5,262.2 1344.8,262.2 1309.7,207.9 1309.9,262.2 1283.2,262.2 1283,164.4 
		1308.8,164.4 1343.8,218.7 1343.7,164.4 	"/>
</g>
<g>
	<polygon class="st1" points="1352.5,155.8 1379.1,155.8 1370.3,164.4 1343.7,164.4 	"/>
</g>
<g>
	<polygon class="st2" points="1352.6,210 1343.8,218.7 1343.7,164.4 1352.5,155.8 	"/>
</g>
<g>
	<polygon class="st1" points="1317.5,155.8 1352.6,210 1343.8,218.7 1308.8,164.4 	"/>
</g>
<g>
	<polygon class="st1" points="1291.8,155.8 1317.5,155.8 1308.8,164.4 1283,164.4 	"/>
</g>
<g>
	<polygon class="st1" points="1379.1,155.8 1379.3,253.5 1370.5,262.2 1370.3,164.4 	"/>
</g>
<g>
	<polygon class="st1" points="1379.3,253.5 1370.5,262.2 1344.8,262.2 1353.6,253.5 	"/>
</g>
<g>
	<polygon class="st2" points="1353.6,253.5 1344.8,262.2 1309.7,207.9 1318.5,199.2 	"/>
</g>
<g>
	<polygon class="st1" points="1318.5,199.2 1318.7,253.5 1309.9,262.2 1309.7,207.9 	"/>
</g>
<g>
	<polygon class="st1" points="1318.7,253.5 1309.9,262.2 1283.2,262.2 1292,253.5 	"/>
</g>
<g>
	<polygon class="st2" points="1292,253.5 1283.2,262.2 1283,164.4 1291.8,155.8 	"/>
</g>
<g>
	<polygon class="st4" points="790.7,25.7 790.8,46.9 765.3,46.9 765.5,123.2 738.8,123.2 738.7,46.9 713.3,46.9 713.2,25.7 	"/>
</g>
<g>
	<polygon class="st4" points="867.4,25.4 867.4,46.7 833.7,46.7 833.7,62.9 863.5,62.9 863.5,84.1 833.8,84.1 833.8,101.9 
		867.5,101.9 867.6,123.2 807.2,123.2 807,25.4 	"/>
</g>
<g>
	<path class="st4" d="M1035.2,24.3c10.7,0,20.4,2.9,28.7,8.6c8.4,5.7,14.3,13.8,17.7,23.9l0.8,2.6h-31l-0.6-1.1
		c-3.2-6.2-8.2-9.2-15.3-9.2c-7.3,0-12.8,2.2-16.9,6.7c-4.1,4.5-6.2,10.6-6.2,18.3c0,7.6,2.1,13.8,6.2,18.3c4.1,4.5,9.7,6.7,17,6.7
		c7.1,0,12-3,15.2-9.2l0.5-1.1h31l-0.8,2.6c-3.3,10.1-9.2,18.2-17.6,23.9c-8.3,5.7-18,8.6-28.7,8.6c-13.8,0-25.7-4.7-35.3-14.1
		s-14.5-21.4-14.6-35.7c0-14.3,4.8-26.4,14.4-35.7C1009.5,29.1,1021.4,24.3,1035.2,24.3z"/>
</g>
<g>
	<path class="st4" d="M944.2,25.4l33.8,97.7h-28.5l-5.2-15.7h-30.6l-5.1,15.7h-28.4l33.5-97.7C913.7,25.4,944.2,25.4,944.2,25.4z
		 M920.7,86.2h16.6l-8.4-25.1L920.7,86.2"/>
</g>
<g>
	<polygon class="st4" points="1184.3,25.7 1184.5,123.2 1157.9,123.2 1157.8,84.4 1125.7,84.4 1125.8,123.2 1099.2,123.2 1099,25.7 
		1125.6,25.7 1125.7,63.1 1157.7,63.1 1157.7,25.7 	"/>
</g>
<g>
	<path class="st4" d="M1261.6,25.4l33.8,97.7h-28.5l-5.2-15.7h-30.6l-5.1,15.7h-28.4l33.5-97.7C1231.1,25.4,1261.6,25.4,1261.6,25.4
		z M1238,86.2h16.6l-8.4-25.1L1238,86.2"/>
</g>
<g>
	<path class="st4" d="M1379.9,80.2c4,4.7,6.1,10.3,6.1,16.6c0,8-3,14.5-8.9,19.3c-5.8,4.7-13.8,7-24,7h-44.7l-0.2-97.5h42.5
		c9.9,0,17.9,2.5,23.9,7.4c6.1,5,9.2,11.4,9.2,19.1c0,9.6-4.6,16.7-13.9,21.1C1373.9,74.7,1377.2,77,1379.9,80.2z M1356.6,99.6
		c1.6-1.5,2.4-3.5,2.4-6.3s-0.8-4.9-2.4-6.5s-3.6-2.4-6.2-2.4H1335v17.4h15.2C1352.8,101.9,1354.9,101.1,1356.6,99.6 M1334.9,46.9
		v16.3h12.9c2.8,0,5-0.7,6.6-2.1c1.5-1.3,2.3-3.3,2.3-6c0-2.8-0.8-4.8-2.3-6.1c-1.6-1.4-3.8-2.1-6.6-2.1L1334.9,46.9"/>
</g>
<g>
	<polygon class="st4" points="1431,25.7 1431.2,101.9 1459.5,101.9 1459.5,123.2 1404.6,123.2 1404.4,25.7 	"/>
</g>
<g>
	<polygon class="st4" points="1535,25.4 1535,46.7 1501.3,46.7 1501.3,62.9 1531.1,62.9 1531.1,84.1 1501.4,84.1 1501.4,101.9 
		1535.2,101.9 1535.2,123.2 1474.8,123.2 1474.6,25.4 	"/>
</g>
<g>
	<polygon class="st4" points="902.6,156 902.8,253.5 876.1,253.5 876,208.8 857.8,253.5 838.3,253.5 819.8,208.8 819.9,253.5 
		793.3,253.5 793.1,156 822.4,156 848,217.3 873.3,156 	"/>
</g>
<g>
	<path class="st4" d="M1070.8,154.7c10.7,0,20.4,2.9,28.7,8.6c8.4,5.7,14.3,13.8,17.7,23.9l0.8,2.6h-31l-0.6-1.1
		c-3.2-6.2-8.2-9.2-15.3-9.2c-7.3,0-12.8,2.2-16.9,6.7s-6.2,10.6-6.2,18.3c0,7.6,2.1,13.8,6.2,18.3s9.7,6.7,17,6.7
		c7.1,0,12-3,15.2-9.2l0.5-1.1h31l-0.8,2.6c-3.3,10.1-9.2,18.2-17.6,23.9c-8.3,5.7-18,8.6-28.7,8.6c-13.8,0-25.7-4.7-35.3-14.1
		c-9.6-9.4-14.5-21.4-14.6-35.7c0-14.3,4.8-26.4,14.4-35.7C1045.1,159.4,1057,154.7,1070.8,154.7z"/>
</g>
<g>
	<path class="st4" d="M979.8,155.8l33.8,97.7h-28.5l-5.2-15.7h-30.6l-5.1,15.7h-28.4l33.5-97.7H979.8z M956.3,216.5h16.6l-8.4-25.1
		L956.3,216.5"/>
</g>
<g>
	<polygon class="st4" points="1219.9,156 1220.1,253.5 1193.5,253.5 1193.4,214.7 1161.4,214.7 1161.4,253.5 1134.8,253.5 
		1134.6,156 1161.2,156 1161.3,193.5 1193.4,193.5 1193.3,156 	"/>
</g>
<g>
	<polygon class="st4" points="1269.2,156 1269.4,253.5 1242.8,253.5 1242.5,156 	"/>
</g>
<g>
	<polygon class="st4" points="1379.1,155.8 1379.3,253.5 1353.6,253.5 1318.5,199.2 1318.7,253.5 1292,253.5 1291.8,155.8 
		1317.5,155.8 1352.6,210 1352.5,155.8 	"/>
</g>
<ellipse class="st12" cx="888.8" cy="128.1" rx="5" ry="1.3"/>
<ellipse class="st12" cx="1107.9" cy="128.1" rx="5" ry="1.3"/>
<ellipse class="st12" cx="1276.8" cy="128.1" rx="5" ry="1.3"/>
<g>
	<path class="st13" d="M1462.3,247.3c84,0,234.1,39.7,234.1-32.5"/>
	<path class="st13" d="M1458.3,209.6c61.4,0,205.8,71,205.8,5.2"/>
	<path class="st13" d="M1462.3,171.3c34.6,0,169.5,94.2,169.5,43.5"/>
	<path class="st13" d="M888.8,128.1c-6.7,24.3,69.6-3.4,69.6,19.4"/>
	<path class="st13" d="M1107.9,128.1c0,17.3,36-1.9,36,19.2"/>
	<path class="st13" d="M1275.7,128.1c5.3,11.7,25.3,4.4,25.3,19.4"/>
	<path class="st13" d="M536.5,81.4C567.3-7,774.1-38.2,774.1,17.2"/>
	<path class="st13" d="M579.3,81.4c21-81.2,168.5-112,168.5-64.3"/>
	<path class="st13" d="M616.7,80.1c0-58.9,104.9-108,104.9-62.9"/>
</g>
<g>
	<polygon class="st1" points="625.2,207.2 513.2,207.2 513.2,95.1 528.2,80.1 640.3,80.1 640.3,192.2 	"/>
	<rect x="528.2" y="80.1" class="st4" width="112" height="112"/>
	<polygon class="st2" points="528.2,80.1 513.2,95.1 513.2,207.2 528.2,192.2 	"/>
</g>
<g>
	<g>
		<ellipse class="st1" cx="582.6" cy="137" rx="8.8" ry="8.8"/>
		<path class="st1" d="M574.3,109.4l-5,5.5h-8.7c-3,0-5.5,2.5-5.5,5.5v33.2c0,3,2.5,5.5,5.5,5.5h44.1c3,0,5.5-2.5,5.5-5.5v-33.2
			c0-3-2.5-5.5-5.5-5.5H596l-5-5.5C591,109.4,574.3,109.4,574.3,109.4z M582.6,150.8c-7.6,0-13.8-6.2-13.8-13.8s6.2-13.8,13.8-13.8
			s13.8,6.2,13.8,13.8S590.2,150.8,582.6,150.8z"/>
	</g>
</g>
<g>
	<path class="st4" d="M1456.9,155l33.8,97.7h-28.5L1457,237h-30.6l-5.1,15.7h-28.4l33.5-97.7H1456.9z M1433.3,215.8h16.6l-8.4-25.1
		L1433.3,215.8"/>
</g>
<g>
	<g id="XMLID_1311_">
		<path class="st1" d="M1698.3,159.5h-54.6c-6.6,0-11.9-5.3-11.9-11.9v-22.1c0-6.6,5.3-11.9,11.9-11.9h54.6
			c6.6,0,11.9,5.3,11.9,11.9v22.1C1710.2,154.2,1704.8,159.5,1698.3,159.5z M1643.7,117.4c-4.5,0-8.1,3.6-8.1,8.1v22.1
			c0,4.5,3.6,8.1,8.1,8.1h54.6c4.5,0,8.1-3.6,8.1-8.1v-22.1c0-4.5-3.6-8.1-8.1-8.1H1643.7z"/>
	</g>
	<g id="XMLID_1309_">
		<path class="st1" d="M1686.2,114.5h-3.8v-2.2c0-2.5-2-4.5-4.5-4.5H1664c-2.5,0-4.5,2-4.5,4.5v2.2h-3.8v-2.2c0-4.5,3.7-8.2,8.2-8.2
			h13.9c4.5,0,8.2,3.7,8.2,8.2V114.5z"/>
	</g>
	<g id="XMLID_1308_">
		<path class="st1" d="M1653.9,145.5c-4.8,0-8.6-3.9-8.6-8.6c0-4.8,3.9-8.6,8.6-8.6s8.6,3.9,8.6,8.6
			C1662.5,141.7,1658.6,145.5,1653.9,145.5z M1653.9,132.1c-2.7,0-4.8,2.2-4.8,4.8c0,2.7,2.2,4.8,4.8,4.8s4.8-2.2,4.8-4.8
			C1658.7,134.2,1656.6,132.1,1653.9,132.1z"/>
	</g>
	<g id="XMLID_1307_">
		<path class="st1" d="M1689,145.5c-4.8,0-8.6-3.9-8.6-8.6c0-4.8,3.9-8.6,8.6-8.6s8.6,3.9,8.6,8.6
			C1697.6,141.7,1693.7,145.5,1689,145.5z M1689,132.1c-2.7,0-4.8,2.2-4.8,4.8c0,2.7,2.2,4.8,4.8,4.8c2.7,0,4.8-2.2,4.8-4.8
			C1693.8,134.2,1691.7,132.1,1689,132.1z"/>
	</g>
</g>
</svg>
